M48
; DRILL file {KiCad (5.1.9)-1} date 05/16/21 18:22:38
; FORMAT={-:-/ absolute / inch / decimal}
; #@! TF.CreationDate,2021-05-16T18:22:38-04:00
; #@! TF.GenerationSoftware,Kicad,Pcbnew,(5.1.9)-1
FMAT,2
INCH
T1C0.0157
T2C0.0354
T3C0.0374
T4C0.0433
%
G90
G05
T1
X2.6949Y-1.0527
X2.76Y-0.73
X2.79Y-1.12
X2.85Y-1.05
X2.98Y-0.97
X3.0337Y-0.9102
X3.05Y-1.02
X3.05Y-1.23
X3.11Y-0.78
X3.12Y-1.07
T3
X3.225Y-0.7829
X3.225Y-0.8813
X3.225Y-0.9797
X3.225Y-1.0781
X3.225Y-1.1766
X3.225Y-1.275
T4
X2.45Y-0.9494
X2.45Y-1.1306
T2
G00X2.4815Y-0.8156
M15
G01X2.4185Y-0.8156
M16
G05
G00X2.4815Y-1.2644
M15
G01X2.4185Y-1.2644
M16
G05
T0
M30
