%TF.GenerationSoftware,KiCad,Pcbnew,(5.1.9)-1*%
%TF.CreationDate,2021-05-16T18:44:34-04:00*%
%TF.ProjectId,esp_prog_v2,6573705f-7072-46f6-975f-76322e6b6963,rev?*%
%TF.SameCoordinates,Original*%
%TF.FileFunction,Soldermask,Top*%
%TF.FilePolarity,Negative*%
%FSLAX46Y46*%
G04 Gerber Fmt 4.6, Leading zero omitted, Abs format (unit mm)*
G04 Created by KiCad (PCBNEW (5.1.9)-1) date 2021-05-16 18:44:34*
%MOMM*%
%LPD*%
G01*
G04 APERTURE LIST*
%ADD10R,2.500000X1.100000*%
%ADD11O,3.500000X1.900000*%
%ADD12C,1.100000*%
%ADD13R,0.900000X0.800000*%
%ADD14R,3.350000X3.350000*%
%ADD15O,1.950000X1.700000*%
G04 APERTURE END LIST*
%TO.C,C1*%
G36*
G01*
X73897500Y-30155000D02*
X73422500Y-30155000D01*
G75*
G02*
X73185000Y-29917500I0J237500D01*
G01*
X73185000Y-29317500D01*
G75*
G02*
X73422500Y-29080000I237500J0D01*
G01*
X73897500Y-29080000D01*
G75*
G02*
X74135000Y-29317500I0J-237500D01*
G01*
X74135000Y-29917500D01*
G75*
G02*
X73897500Y-30155000I-237500J0D01*
G01*
G37*
G36*
G01*
X73897500Y-31880000D02*
X73422500Y-31880000D01*
G75*
G02*
X73185000Y-31642500I0J237500D01*
G01*
X73185000Y-31042500D01*
G75*
G02*
X73422500Y-30805000I237500J0D01*
G01*
X73897500Y-30805000D01*
G75*
G02*
X74135000Y-31042500I0J-237500D01*
G01*
X74135000Y-31642500D01*
G75*
G02*
X73897500Y-31880000I-237500J0D01*
G01*
G37*
%TD*%
%TO.C,C2*%
G36*
G01*
X75962500Y-29080000D02*
X76437500Y-29080000D01*
G75*
G02*
X76675000Y-29317500I0J-237500D01*
G01*
X76675000Y-29917500D01*
G75*
G02*
X76437500Y-30155000I-237500J0D01*
G01*
X75962500Y-30155000D01*
G75*
G02*
X75725000Y-29917500I0J237500D01*
G01*
X75725000Y-29317500D01*
G75*
G02*
X75962500Y-29080000I237500J0D01*
G01*
G37*
G36*
G01*
X75962500Y-30805000D02*
X76437500Y-30805000D01*
G75*
G02*
X76675000Y-31042500I0J-237500D01*
G01*
X76675000Y-31642500D01*
G75*
G02*
X76437500Y-31880000I-237500J0D01*
G01*
X75962500Y-31880000D01*
G75*
G02*
X75725000Y-31642500I0J237500D01*
G01*
X75725000Y-31042500D01*
G75*
G02*
X75962500Y-30805000I237500J0D01*
G01*
G37*
%TD*%
D10*
%TO.C,J1*%
X64980000Y-27416000D03*
X64980000Y-25416000D03*
X64980000Y-29916000D03*
X64980000Y-22916000D03*
D11*
X62230000Y-32116000D03*
X62230000Y-20716000D03*
D12*
X62230000Y-28716000D03*
X62230000Y-24116000D03*
%TD*%
%TO.C,R1*%
G36*
G01*
X73530000Y-27542500D02*
X73530000Y-27067500D01*
G75*
G02*
X73767500Y-26830000I237500J0D01*
G01*
X74267500Y-26830000D01*
G75*
G02*
X74505000Y-27067500I0J-237500D01*
G01*
X74505000Y-27542500D01*
G75*
G02*
X74267500Y-27780000I-237500J0D01*
G01*
X73767500Y-27780000D01*
G75*
G02*
X73530000Y-27542500I0J237500D01*
G01*
G37*
G36*
G01*
X75355000Y-27542500D02*
X75355000Y-27067500D01*
G75*
G02*
X75592500Y-26830000I237500J0D01*
G01*
X76092500Y-26830000D01*
G75*
G02*
X76330000Y-27067500I0J-237500D01*
G01*
X76330000Y-27542500D01*
G75*
G02*
X76092500Y-27780000I-237500J0D01*
G01*
X75592500Y-27780000D01*
G75*
G02*
X75355000Y-27542500I0J237500D01*
G01*
G37*
%TD*%
D13*
%TO.C,U1*%
X70850000Y-31430000D03*
X70850000Y-29530000D03*
X68850000Y-30480000D03*
%TD*%
%TO.C,U2*%
G36*
G01*
X68905000Y-21422500D02*
X68905000Y-21297500D01*
G75*
G02*
X68967500Y-21235000I62500J0D01*
G01*
X69642500Y-21235000D01*
G75*
G02*
X69705000Y-21297500I0J-62500D01*
G01*
X69705000Y-21422500D01*
G75*
G02*
X69642500Y-21485000I-62500J0D01*
G01*
X68967500Y-21485000D01*
G75*
G02*
X68905000Y-21422500I0J62500D01*
G01*
G37*
G36*
G01*
X68905000Y-21922500D02*
X68905000Y-21797500D01*
G75*
G02*
X68967500Y-21735000I62500J0D01*
G01*
X69642500Y-21735000D01*
G75*
G02*
X69705000Y-21797500I0J-62500D01*
G01*
X69705000Y-21922500D01*
G75*
G02*
X69642500Y-21985000I-62500J0D01*
G01*
X68967500Y-21985000D01*
G75*
G02*
X68905000Y-21922500I0J62500D01*
G01*
G37*
G36*
G01*
X68905000Y-22422500D02*
X68905000Y-22297500D01*
G75*
G02*
X68967500Y-22235000I62500J0D01*
G01*
X69642500Y-22235000D01*
G75*
G02*
X69705000Y-22297500I0J-62500D01*
G01*
X69705000Y-22422500D01*
G75*
G02*
X69642500Y-22485000I-62500J0D01*
G01*
X68967500Y-22485000D01*
G75*
G02*
X68905000Y-22422500I0J62500D01*
G01*
G37*
G36*
G01*
X68905000Y-22922500D02*
X68905000Y-22797500D01*
G75*
G02*
X68967500Y-22735000I62500J0D01*
G01*
X69642500Y-22735000D01*
G75*
G02*
X69705000Y-22797500I0J-62500D01*
G01*
X69705000Y-22922500D01*
G75*
G02*
X69642500Y-22985000I-62500J0D01*
G01*
X68967500Y-22985000D01*
G75*
G02*
X68905000Y-22922500I0J62500D01*
G01*
G37*
G36*
G01*
X68905000Y-23422500D02*
X68905000Y-23297500D01*
G75*
G02*
X68967500Y-23235000I62500J0D01*
G01*
X69642500Y-23235000D01*
G75*
G02*
X69705000Y-23297500I0J-62500D01*
G01*
X69705000Y-23422500D01*
G75*
G02*
X69642500Y-23485000I-62500J0D01*
G01*
X68967500Y-23485000D01*
G75*
G02*
X68905000Y-23422500I0J62500D01*
G01*
G37*
G36*
G01*
X68905000Y-23922500D02*
X68905000Y-23797500D01*
G75*
G02*
X68967500Y-23735000I62500J0D01*
G01*
X69642500Y-23735000D01*
G75*
G02*
X69705000Y-23797500I0J-62500D01*
G01*
X69705000Y-23922500D01*
G75*
G02*
X69642500Y-23985000I-62500J0D01*
G01*
X68967500Y-23985000D01*
G75*
G02*
X68905000Y-23922500I0J62500D01*
G01*
G37*
G36*
G01*
X68905000Y-24422500D02*
X68905000Y-24297500D01*
G75*
G02*
X68967500Y-24235000I62500J0D01*
G01*
X69642500Y-24235000D01*
G75*
G02*
X69705000Y-24297500I0J-62500D01*
G01*
X69705000Y-24422500D01*
G75*
G02*
X69642500Y-24485000I-62500J0D01*
G01*
X68967500Y-24485000D01*
G75*
G02*
X68905000Y-24422500I0J62500D01*
G01*
G37*
G36*
G01*
X70130000Y-25647500D02*
X70130000Y-24972500D01*
G75*
G02*
X70192500Y-24910000I62500J0D01*
G01*
X70317500Y-24910000D01*
G75*
G02*
X70380000Y-24972500I0J-62500D01*
G01*
X70380000Y-25647500D01*
G75*
G02*
X70317500Y-25710000I-62500J0D01*
G01*
X70192500Y-25710000D01*
G75*
G02*
X70130000Y-25647500I0J62500D01*
G01*
G37*
G36*
G01*
X70630000Y-25647500D02*
X70630000Y-24972500D01*
G75*
G02*
X70692500Y-24910000I62500J0D01*
G01*
X70817500Y-24910000D01*
G75*
G02*
X70880000Y-24972500I0J-62500D01*
G01*
X70880000Y-25647500D01*
G75*
G02*
X70817500Y-25710000I-62500J0D01*
G01*
X70692500Y-25710000D01*
G75*
G02*
X70630000Y-25647500I0J62500D01*
G01*
G37*
G36*
G01*
X71130000Y-25647500D02*
X71130000Y-24972500D01*
G75*
G02*
X71192500Y-24910000I62500J0D01*
G01*
X71317500Y-24910000D01*
G75*
G02*
X71380000Y-24972500I0J-62500D01*
G01*
X71380000Y-25647500D01*
G75*
G02*
X71317500Y-25710000I-62500J0D01*
G01*
X71192500Y-25710000D01*
G75*
G02*
X71130000Y-25647500I0J62500D01*
G01*
G37*
G36*
G01*
X71630000Y-25647500D02*
X71630000Y-24972500D01*
G75*
G02*
X71692500Y-24910000I62500J0D01*
G01*
X71817500Y-24910000D01*
G75*
G02*
X71880000Y-24972500I0J-62500D01*
G01*
X71880000Y-25647500D01*
G75*
G02*
X71817500Y-25710000I-62500J0D01*
G01*
X71692500Y-25710000D01*
G75*
G02*
X71630000Y-25647500I0J62500D01*
G01*
G37*
G36*
G01*
X72130000Y-25647500D02*
X72130000Y-24972500D01*
G75*
G02*
X72192500Y-24910000I62500J0D01*
G01*
X72317500Y-24910000D01*
G75*
G02*
X72380000Y-24972500I0J-62500D01*
G01*
X72380000Y-25647500D01*
G75*
G02*
X72317500Y-25710000I-62500J0D01*
G01*
X72192500Y-25710000D01*
G75*
G02*
X72130000Y-25647500I0J62500D01*
G01*
G37*
G36*
G01*
X72630000Y-25647500D02*
X72630000Y-24972500D01*
G75*
G02*
X72692500Y-24910000I62500J0D01*
G01*
X72817500Y-24910000D01*
G75*
G02*
X72880000Y-24972500I0J-62500D01*
G01*
X72880000Y-25647500D01*
G75*
G02*
X72817500Y-25710000I-62500J0D01*
G01*
X72692500Y-25710000D01*
G75*
G02*
X72630000Y-25647500I0J62500D01*
G01*
G37*
G36*
G01*
X73130000Y-25647500D02*
X73130000Y-24972500D01*
G75*
G02*
X73192500Y-24910000I62500J0D01*
G01*
X73317500Y-24910000D01*
G75*
G02*
X73380000Y-24972500I0J-62500D01*
G01*
X73380000Y-25647500D01*
G75*
G02*
X73317500Y-25710000I-62500J0D01*
G01*
X73192500Y-25710000D01*
G75*
G02*
X73130000Y-25647500I0J62500D01*
G01*
G37*
G36*
G01*
X73805000Y-24422500D02*
X73805000Y-24297500D01*
G75*
G02*
X73867500Y-24235000I62500J0D01*
G01*
X74542500Y-24235000D01*
G75*
G02*
X74605000Y-24297500I0J-62500D01*
G01*
X74605000Y-24422500D01*
G75*
G02*
X74542500Y-24485000I-62500J0D01*
G01*
X73867500Y-24485000D01*
G75*
G02*
X73805000Y-24422500I0J62500D01*
G01*
G37*
G36*
G01*
X73805000Y-23922500D02*
X73805000Y-23797500D01*
G75*
G02*
X73867500Y-23735000I62500J0D01*
G01*
X74542500Y-23735000D01*
G75*
G02*
X74605000Y-23797500I0J-62500D01*
G01*
X74605000Y-23922500D01*
G75*
G02*
X74542500Y-23985000I-62500J0D01*
G01*
X73867500Y-23985000D01*
G75*
G02*
X73805000Y-23922500I0J62500D01*
G01*
G37*
G36*
G01*
X73805000Y-23422500D02*
X73805000Y-23297500D01*
G75*
G02*
X73867500Y-23235000I62500J0D01*
G01*
X74542500Y-23235000D01*
G75*
G02*
X74605000Y-23297500I0J-62500D01*
G01*
X74605000Y-23422500D01*
G75*
G02*
X74542500Y-23485000I-62500J0D01*
G01*
X73867500Y-23485000D01*
G75*
G02*
X73805000Y-23422500I0J62500D01*
G01*
G37*
G36*
G01*
X73805000Y-22922500D02*
X73805000Y-22797500D01*
G75*
G02*
X73867500Y-22735000I62500J0D01*
G01*
X74542500Y-22735000D01*
G75*
G02*
X74605000Y-22797500I0J-62500D01*
G01*
X74605000Y-22922500D01*
G75*
G02*
X74542500Y-22985000I-62500J0D01*
G01*
X73867500Y-22985000D01*
G75*
G02*
X73805000Y-22922500I0J62500D01*
G01*
G37*
G36*
G01*
X73805000Y-22422500D02*
X73805000Y-22297500D01*
G75*
G02*
X73867500Y-22235000I62500J0D01*
G01*
X74542500Y-22235000D01*
G75*
G02*
X74605000Y-22297500I0J-62500D01*
G01*
X74605000Y-22422500D01*
G75*
G02*
X74542500Y-22485000I-62500J0D01*
G01*
X73867500Y-22485000D01*
G75*
G02*
X73805000Y-22422500I0J62500D01*
G01*
G37*
G36*
G01*
X73805000Y-21922500D02*
X73805000Y-21797500D01*
G75*
G02*
X73867500Y-21735000I62500J0D01*
G01*
X74542500Y-21735000D01*
G75*
G02*
X74605000Y-21797500I0J-62500D01*
G01*
X74605000Y-21922500D01*
G75*
G02*
X74542500Y-21985000I-62500J0D01*
G01*
X73867500Y-21985000D01*
G75*
G02*
X73805000Y-21922500I0J62500D01*
G01*
G37*
G36*
G01*
X73805000Y-21422500D02*
X73805000Y-21297500D01*
G75*
G02*
X73867500Y-21235000I62500J0D01*
G01*
X74542500Y-21235000D01*
G75*
G02*
X74605000Y-21297500I0J-62500D01*
G01*
X74605000Y-21422500D01*
G75*
G02*
X74542500Y-21485000I-62500J0D01*
G01*
X73867500Y-21485000D01*
G75*
G02*
X73805000Y-21422500I0J62500D01*
G01*
G37*
G36*
G01*
X73130000Y-20747500D02*
X73130000Y-20072500D01*
G75*
G02*
X73192500Y-20010000I62500J0D01*
G01*
X73317500Y-20010000D01*
G75*
G02*
X73380000Y-20072500I0J-62500D01*
G01*
X73380000Y-20747500D01*
G75*
G02*
X73317500Y-20810000I-62500J0D01*
G01*
X73192500Y-20810000D01*
G75*
G02*
X73130000Y-20747500I0J62500D01*
G01*
G37*
G36*
G01*
X72630000Y-20747500D02*
X72630000Y-20072500D01*
G75*
G02*
X72692500Y-20010000I62500J0D01*
G01*
X72817500Y-20010000D01*
G75*
G02*
X72880000Y-20072500I0J-62500D01*
G01*
X72880000Y-20747500D01*
G75*
G02*
X72817500Y-20810000I-62500J0D01*
G01*
X72692500Y-20810000D01*
G75*
G02*
X72630000Y-20747500I0J62500D01*
G01*
G37*
G36*
G01*
X72130000Y-20747500D02*
X72130000Y-20072500D01*
G75*
G02*
X72192500Y-20010000I62500J0D01*
G01*
X72317500Y-20010000D01*
G75*
G02*
X72380000Y-20072500I0J-62500D01*
G01*
X72380000Y-20747500D01*
G75*
G02*
X72317500Y-20810000I-62500J0D01*
G01*
X72192500Y-20810000D01*
G75*
G02*
X72130000Y-20747500I0J62500D01*
G01*
G37*
G36*
G01*
X71630000Y-20747500D02*
X71630000Y-20072500D01*
G75*
G02*
X71692500Y-20010000I62500J0D01*
G01*
X71817500Y-20010000D01*
G75*
G02*
X71880000Y-20072500I0J-62500D01*
G01*
X71880000Y-20747500D01*
G75*
G02*
X71817500Y-20810000I-62500J0D01*
G01*
X71692500Y-20810000D01*
G75*
G02*
X71630000Y-20747500I0J62500D01*
G01*
G37*
G36*
G01*
X71130000Y-20747500D02*
X71130000Y-20072500D01*
G75*
G02*
X71192500Y-20010000I62500J0D01*
G01*
X71317500Y-20010000D01*
G75*
G02*
X71380000Y-20072500I0J-62500D01*
G01*
X71380000Y-20747500D01*
G75*
G02*
X71317500Y-20810000I-62500J0D01*
G01*
X71192500Y-20810000D01*
G75*
G02*
X71130000Y-20747500I0J62500D01*
G01*
G37*
G36*
G01*
X70630000Y-20747500D02*
X70630000Y-20072500D01*
G75*
G02*
X70692500Y-20010000I62500J0D01*
G01*
X70817500Y-20010000D01*
G75*
G02*
X70880000Y-20072500I0J-62500D01*
G01*
X70880000Y-20747500D01*
G75*
G02*
X70817500Y-20810000I-62500J0D01*
G01*
X70692500Y-20810000D01*
G75*
G02*
X70630000Y-20747500I0J62500D01*
G01*
G37*
G36*
G01*
X70130000Y-20747500D02*
X70130000Y-20072500D01*
G75*
G02*
X70192500Y-20010000I62500J0D01*
G01*
X70317500Y-20010000D01*
G75*
G02*
X70380000Y-20072500I0J-62500D01*
G01*
X70380000Y-20747500D01*
G75*
G02*
X70317500Y-20810000I-62500J0D01*
G01*
X70192500Y-20810000D01*
G75*
G02*
X70130000Y-20747500I0J62500D01*
G01*
G37*
D14*
X71755000Y-22860000D03*
%TD*%
%TO.C,J2*%
G36*
G01*
X82640000Y-33235000D02*
X81190000Y-33235000D01*
G75*
G02*
X80940000Y-32985000I0J250000D01*
G01*
X80940000Y-31785000D01*
G75*
G02*
X81190000Y-31535000I250000J0D01*
G01*
X82640000Y-31535000D01*
G75*
G02*
X82890000Y-31785000I0J-250000D01*
G01*
X82890000Y-32985000D01*
G75*
G02*
X82640000Y-33235000I-250000J0D01*
G01*
G37*
D15*
X81915000Y-29885000D03*
X81915000Y-27385000D03*
X81915000Y-24885000D03*
X81915000Y-22385000D03*
X81915000Y-19885000D03*
%TD*%
M02*
