M48
; DRILL file {KiCad (5.1.9)-1} date 04/24/21 14:26:45
; FORMAT={-:-/ absolute / inch / decimal}
; #@! TF.CreationDate,2021-04-24T14:26:45-04:00
; #@! TF.GenerationSoftware,Kicad,Pcbnew,(5.1.9)-1
FMAT,2
INCH
T1C0.0157
T2C0.0374
%
G90
G05
T1
X4.95Y-3.72
X4.97Y-3.4159
X5.07Y-3.473
X5.08Y-3.4
X5.0967Y-3.5833
X5.11Y-3.48
X5.1802Y-3.5802
X5.1997Y-3.2503
X5.25Y-3.69
X5.25Y-3.85
X5.31Y-3.57
X5.39Y-3.53
X5.41Y-3.2385
X5.45Y-3.2495
X5.57Y-3.42
X5.57Y-3.52
X5.57Y-3.62
T2
X5.69Y-3.2279
X5.69Y-3.3263
X5.69Y-3.4247
X5.69Y-3.5231
X5.69Y-3.6216
X5.69Y-3.72
T0
M30
