%TF.GenerationSoftware,KiCad,Pcbnew,(5.1.9)-1*%
%TF.CreationDate,2021-05-16T18:44:34-04:00*%
%TF.ProjectId,esp_prog_v2,6573705f-7072-46f6-975f-76322e6b6963,rev?*%
%TF.SameCoordinates,Original*%
%TF.FileFunction,Copper,L1,Top*%
%TF.FilePolarity,Positive*%
%FSLAX46Y46*%
G04 Gerber Fmt 4.6, Leading zero omitted, Abs format (unit mm)*
G04 Created by KiCad (PCBNEW (5.1.9)-1) date 2021-05-16 18:44:34*
%MOMM*%
%LPD*%
G01*
G04 APERTURE LIST*
%TA.AperFunction,SMDPad,CuDef*%
%ADD10R,2.500000X1.100000*%
%TD*%
%TA.AperFunction,ComponentPad*%
%ADD11O,3.500000X1.900000*%
%TD*%
%TA.AperFunction,SMDPad,CuDef*%
%ADD12R,0.900000X0.800000*%
%TD*%
%TA.AperFunction,SMDPad,CuDef*%
%ADD13R,3.350000X3.350000*%
%TD*%
%TA.AperFunction,ComponentPad*%
%ADD14O,1.950000X1.700000*%
%TD*%
%TA.AperFunction,ViaPad*%
%ADD15C,0.800000*%
%TD*%
%TA.AperFunction,Conductor*%
%ADD16C,0.250000*%
%TD*%
G04 APERTURE END LIST*
%TO.P,C1,2*%
%TO.N,+5V*%
%TA.AperFunction,SMDPad,CuDef*%
G36*
G01*
X73897500Y-30155000D02*
X73422500Y-30155000D01*
G75*
G02*
X73185000Y-29917500I0J237500D01*
G01*
X73185000Y-29317500D01*
G75*
G02*
X73422500Y-29080000I237500J0D01*
G01*
X73897500Y-29080000D01*
G75*
G02*
X74135000Y-29317500I0J-237500D01*
G01*
X74135000Y-29917500D01*
G75*
G02*
X73897500Y-30155000I-237500J0D01*
G01*
G37*
%TD.AperFunction*%
%TO.P,C1,1*%
%TO.N,GND*%
%TA.AperFunction,SMDPad,CuDef*%
G36*
G01*
X73897500Y-31880000D02*
X73422500Y-31880000D01*
G75*
G02*
X73185000Y-31642500I0J237500D01*
G01*
X73185000Y-31042500D01*
G75*
G02*
X73422500Y-30805000I237500J0D01*
G01*
X73897500Y-30805000D01*
G75*
G02*
X74135000Y-31042500I0J-237500D01*
G01*
X74135000Y-31642500D01*
G75*
G02*
X73897500Y-31880000I-237500J0D01*
G01*
G37*
%TD.AperFunction*%
%TD*%
%TO.P,C2,1*%
%TO.N,VDD*%
%TA.AperFunction,SMDPad,CuDef*%
G36*
G01*
X75962500Y-29080000D02*
X76437500Y-29080000D01*
G75*
G02*
X76675000Y-29317500I0J-237500D01*
G01*
X76675000Y-29917500D01*
G75*
G02*
X76437500Y-30155000I-237500J0D01*
G01*
X75962500Y-30155000D01*
G75*
G02*
X75725000Y-29917500I0J237500D01*
G01*
X75725000Y-29317500D01*
G75*
G02*
X75962500Y-29080000I237500J0D01*
G01*
G37*
%TD.AperFunction*%
%TO.P,C2,2*%
%TO.N,GND*%
%TA.AperFunction,SMDPad,CuDef*%
G36*
G01*
X75962500Y-30805000D02*
X76437500Y-30805000D01*
G75*
G02*
X76675000Y-31042500I0J-237500D01*
G01*
X76675000Y-31642500D01*
G75*
G02*
X76437500Y-31880000I-237500J0D01*
G01*
X75962500Y-31880000D01*
G75*
G02*
X75725000Y-31642500I0J237500D01*
G01*
X75725000Y-31042500D01*
G75*
G02*
X75962500Y-30805000I237500J0D01*
G01*
G37*
%TD.AperFunction*%
%TD*%
D10*
%TO.P,J1,2*%
%TO.N,D-*%
X64980000Y-27416000D03*
%TO.P,J1,3*%
%TO.N,D+*%
X64980000Y-25416000D03*
%TO.P,J1,1*%
%TO.N,+5V*%
X64980000Y-29916000D03*
%TO.P,J1,4*%
%TO.N,GND*%
X64980000Y-22916000D03*
D11*
%TO.P,J1,5*%
X62230000Y-32116000D03*
X62230000Y-20716000D03*
%TD*%
%TO.P,R1,1*%
%TO.N,Net-(R1-Pad1)*%
%TA.AperFunction,SMDPad,CuDef*%
G36*
G01*
X73530000Y-27542500D02*
X73530000Y-27067500D01*
G75*
G02*
X73767500Y-26830000I237500J0D01*
G01*
X74267500Y-26830000D01*
G75*
G02*
X74505000Y-27067500I0J-237500D01*
G01*
X74505000Y-27542500D01*
G75*
G02*
X74267500Y-27780000I-237500J0D01*
G01*
X73767500Y-27780000D01*
G75*
G02*
X73530000Y-27542500I0J237500D01*
G01*
G37*
%TD.AperFunction*%
%TO.P,R1,2*%
%TO.N,VDD*%
%TA.AperFunction,SMDPad,CuDef*%
G36*
G01*
X75355000Y-27542500D02*
X75355000Y-27067500D01*
G75*
G02*
X75592500Y-26830000I237500J0D01*
G01*
X76092500Y-26830000D01*
G75*
G02*
X76330000Y-27067500I0J-237500D01*
G01*
X76330000Y-27542500D01*
G75*
G02*
X76092500Y-27780000I-237500J0D01*
G01*
X75592500Y-27780000D01*
G75*
G02*
X75355000Y-27542500I0J237500D01*
G01*
G37*
%TD.AperFunction*%
%TD*%
D12*
%TO.P,U1,1*%
%TO.N,GND*%
X70850000Y-31430000D03*
%TO.P,U1,2*%
%TO.N,+3V3*%
X70850000Y-29530000D03*
%TO.P,U1,3*%
%TO.N,+5V*%
X68850000Y-30480000D03*
%TD*%
%TO.P,U2,1*%
%TO.N,N/C*%
%TA.AperFunction,SMDPad,CuDef*%
G36*
G01*
X68905000Y-21422500D02*
X68905000Y-21297500D01*
G75*
G02*
X68967500Y-21235000I62500J0D01*
G01*
X69642500Y-21235000D01*
G75*
G02*
X69705000Y-21297500I0J-62500D01*
G01*
X69705000Y-21422500D01*
G75*
G02*
X69642500Y-21485000I-62500J0D01*
G01*
X68967500Y-21485000D01*
G75*
G02*
X68905000Y-21422500I0J62500D01*
G01*
G37*
%TD.AperFunction*%
%TO.P,U2,2*%
%TA.AperFunction,SMDPad,CuDef*%
G36*
G01*
X68905000Y-21922500D02*
X68905000Y-21797500D01*
G75*
G02*
X68967500Y-21735000I62500J0D01*
G01*
X69642500Y-21735000D01*
G75*
G02*
X69705000Y-21797500I0J-62500D01*
G01*
X69705000Y-21922500D01*
G75*
G02*
X69642500Y-21985000I-62500J0D01*
G01*
X68967500Y-21985000D01*
G75*
G02*
X68905000Y-21922500I0J62500D01*
G01*
G37*
%TD.AperFunction*%
%TO.P,U2,3*%
%TO.N,GND*%
%TA.AperFunction,SMDPad,CuDef*%
G36*
G01*
X68905000Y-22422500D02*
X68905000Y-22297500D01*
G75*
G02*
X68967500Y-22235000I62500J0D01*
G01*
X69642500Y-22235000D01*
G75*
G02*
X69705000Y-22297500I0J-62500D01*
G01*
X69705000Y-22422500D01*
G75*
G02*
X69642500Y-22485000I-62500J0D01*
G01*
X68967500Y-22485000D01*
G75*
G02*
X68905000Y-22422500I0J62500D01*
G01*
G37*
%TD.AperFunction*%
%TO.P,U2,4*%
%TO.N,D+*%
%TA.AperFunction,SMDPad,CuDef*%
G36*
G01*
X68905000Y-22922500D02*
X68905000Y-22797500D01*
G75*
G02*
X68967500Y-22735000I62500J0D01*
G01*
X69642500Y-22735000D01*
G75*
G02*
X69705000Y-22797500I0J-62500D01*
G01*
X69705000Y-22922500D01*
G75*
G02*
X69642500Y-22985000I-62500J0D01*
G01*
X68967500Y-22985000D01*
G75*
G02*
X68905000Y-22922500I0J62500D01*
G01*
G37*
%TD.AperFunction*%
%TO.P,U2,5*%
%TO.N,D-*%
%TA.AperFunction,SMDPad,CuDef*%
G36*
G01*
X68905000Y-23422500D02*
X68905000Y-23297500D01*
G75*
G02*
X68967500Y-23235000I62500J0D01*
G01*
X69642500Y-23235000D01*
G75*
G02*
X69705000Y-23297500I0J-62500D01*
G01*
X69705000Y-23422500D01*
G75*
G02*
X69642500Y-23485000I-62500J0D01*
G01*
X68967500Y-23485000D01*
G75*
G02*
X68905000Y-23422500I0J62500D01*
G01*
G37*
%TD.AperFunction*%
%TO.P,U2,6*%
%TO.N,VDD*%
%TA.AperFunction,SMDPad,CuDef*%
G36*
G01*
X68905000Y-23922500D02*
X68905000Y-23797500D01*
G75*
G02*
X68967500Y-23735000I62500J0D01*
G01*
X69642500Y-23735000D01*
G75*
G02*
X69705000Y-23797500I0J-62500D01*
G01*
X69705000Y-23922500D01*
G75*
G02*
X69642500Y-23985000I-62500J0D01*
G01*
X68967500Y-23985000D01*
G75*
G02*
X68905000Y-23922500I0J62500D01*
G01*
G37*
%TD.AperFunction*%
%TO.P,U2,7*%
%TO.N,+5V*%
%TA.AperFunction,SMDPad,CuDef*%
G36*
G01*
X68905000Y-24422500D02*
X68905000Y-24297500D01*
G75*
G02*
X68967500Y-24235000I62500J0D01*
G01*
X69642500Y-24235000D01*
G75*
G02*
X69705000Y-24297500I0J-62500D01*
G01*
X69705000Y-24422500D01*
G75*
G02*
X69642500Y-24485000I-62500J0D01*
G01*
X68967500Y-24485000D01*
G75*
G02*
X68905000Y-24422500I0J62500D01*
G01*
G37*
%TD.AperFunction*%
%TO.P,U2,8*%
%TA.AperFunction,SMDPad,CuDef*%
G36*
G01*
X70130000Y-25647500D02*
X70130000Y-24972500D01*
G75*
G02*
X70192500Y-24910000I62500J0D01*
G01*
X70317500Y-24910000D01*
G75*
G02*
X70380000Y-24972500I0J-62500D01*
G01*
X70380000Y-25647500D01*
G75*
G02*
X70317500Y-25710000I-62500J0D01*
G01*
X70192500Y-25710000D01*
G75*
G02*
X70130000Y-25647500I0J62500D01*
G01*
G37*
%TD.AperFunction*%
%TO.P,U2,9*%
%TO.N,Net-(R1-Pad1)*%
%TA.AperFunction,SMDPad,CuDef*%
G36*
G01*
X70630000Y-25647500D02*
X70630000Y-24972500D01*
G75*
G02*
X70692500Y-24910000I62500J0D01*
G01*
X70817500Y-24910000D01*
G75*
G02*
X70880000Y-24972500I0J-62500D01*
G01*
X70880000Y-25647500D01*
G75*
G02*
X70817500Y-25710000I-62500J0D01*
G01*
X70692500Y-25710000D01*
G75*
G02*
X70630000Y-25647500I0J62500D01*
G01*
G37*
%TD.AperFunction*%
%TO.P,U2,10*%
%TO.N,N/C*%
%TA.AperFunction,SMDPad,CuDef*%
G36*
G01*
X71130000Y-25647500D02*
X71130000Y-24972500D01*
G75*
G02*
X71192500Y-24910000I62500J0D01*
G01*
X71317500Y-24910000D01*
G75*
G02*
X71380000Y-24972500I0J-62500D01*
G01*
X71380000Y-25647500D01*
G75*
G02*
X71317500Y-25710000I-62500J0D01*
G01*
X71192500Y-25710000D01*
G75*
G02*
X71130000Y-25647500I0J62500D01*
G01*
G37*
%TD.AperFunction*%
%TO.P,U2,11*%
%TA.AperFunction,SMDPad,CuDef*%
G36*
G01*
X71630000Y-25647500D02*
X71630000Y-24972500D01*
G75*
G02*
X71692500Y-24910000I62500J0D01*
G01*
X71817500Y-24910000D01*
G75*
G02*
X71880000Y-24972500I0J-62500D01*
G01*
X71880000Y-25647500D01*
G75*
G02*
X71817500Y-25710000I-62500J0D01*
G01*
X71692500Y-25710000D01*
G75*
G02*
X71630000Y-25647500I0J62500D01*
G01*
G37*
%TD.AperFunction*%
%TO.P,U2,12*%
%TA.AperFunction,SMDPad,CuDef*%
G36*
G01*
X72130000Y-25647500D02*
X72130000Y-24972500D01*
G75*
G02*
X72192500Y-24910000I62500J0D01*
G01*
X72317500Y-24910000D01*
G75*
G02*
X72380000Y-24972500I0J-62500D01*
G01*
X72380000Y-25647500D01*
G75*
G02*
X72317500Y-25710000I-62500J0D01*
G01*
X72192500Y-25710000D01*
G75*
G02*
X72130000Y-25647500I0J62500D01*
G01*
G37*
%TD.AperFunction*%
%TO.P,U2,13*%
%TA.AperFunction,SMDPad,CuDef*%
G36*
G01*
X72630000Y-25647500D02*
X72630000Y-24972500D01*
G75*
G02*
X72692500Y-24910000I62500J0D01*
G01*
X72817500Y-24910000D01*
G75*
G02*
X72880000Y-24972500I0J-62500D01*
G01*
X72880000Y-25647500D01*
G75*
G02*
X72817500Y-25710000I-62500J0D01*
G01*
X72692500Y-25710000D01*
G75*
G02*
X72630000Y-25647500I0J62500D01*
G01*
G37*
%TD.AperFunction*%
%TO.P,U2,14*%
%TA.AperFunction,SMDPad,CuDef*%
G36*
G01*
X73130000Y-25647500D02*
X73130000Y-24972500D01*
G75*
G02*
X73192500Y-24910000I62500J0D01*
G01*
X73317500Y-24910000D01*
G75*
G02*
X73380000Y-24972500I0J-62500D01*
G01*
X73380000Y-25647500D01*
G75*
G02*
X73317500Y-25710000I-62500J0D01*
G01*
X73192500Y-25710000D01*
G75*
G02*
X73130000Y-25647500I0J62500D01*
G01*
G37*
%TD.AperFunction*%
%TO.P,U2,15*%
%TA.AperFunction,SMDPad,CuDef*%
G36*
G01*
X73805000Y-24422500D02*
X73805000Y-24297500D01*
G75*
G02*
X73867500Y-24235000I62500J0D01*
G01*
X74542500Y-24235000D01*
G75*
G02*
X74605000Y-24297500I0J-62500D01*
G01*
X74605000Y-24422500D01*
G75*
G02*
X74542500Y-24485000I-62500J0D01*
G01*
X73867500Y-24485000D01*
G75*
G02*
X73805000Y-24422500I0J62500D01*
G01*
G37*
%TD.AperFunction*%
%TO.P,U2,16*%
%TA.AperFunction,SMDPad,CuDef*%
G36*
G01*
X73805000Y-23922500D02*
X73805000Y-23797500D01*
G75*
G02*
X73867500Y-23735000I62500J0D01*
G01*
X74542500Y-23735000D01*
G75*
G02*
X74605000Y-23797500I0J-62500D01*
G01*
X74605000Y-23922500D01*
G75*
G02*
X74542500Y-23985000I-62500J0D01*
G01*
X73867500Y-23985000D01*
G75*
G02*
X73805000Y-23922500I0J62500D01*
G01*
G37*
%TD.AperFunction*%
%TO.P,U2,17*%
%TA.AperFunction,SMDPad,CuDef*%
G36*
G01*
X73805000Y-23422500D02*
X73805000Y-23297500D01*
G75*
G02*
X73867500Y-23235000I62500J0D01*
G01*
X74542500Y-23235000D01*
G75*
G02*
X74605000Y-23297500I0J-62500D01*
G01*
X74605000Y-23422500D01*
G75*
G02*
X74542500Y-23485000I-62500J0D01*
G01*
X73867500Y-23485000D01*
G75*
G02*
X73805000Y-23422500I0J62500D01*
G01*
G37*
%TD.AperFunction*%
%TO.P,U2,18*%
%TA.AperFunction,SMDPad,CuDef*%
G36*
G01*
X73805000Y-22922500D02*
X73805000Y-22797500D01*
G75*
G02*
X73867500Y-22735000I62500J0D01*
G01*
X74542500Y-22735000D01*
G75*
G02*
X74605000Y-22797500I0J-62500D01*
G01*
X74605000Y-22922500D01*
G75*
G02*
X74542500Y-22985000I-62500J0D01*
G01*
X73867500Y-22985000D01*
G75*
G02*
X73805000Y-22922500I0J62500D01*
G01*
G37*
%TD.AperFunction*%
%TO.P,U2,19*%
%TA.AperFunction,SMDPad,CuDef*%
G36*
G01*
X73805000Y-22422500D02*
X73805000Y-22297500D01*
G75*
G02*
X73867500Y-22235000I62500J0D01*
G01*
X74542500Y-22235000D01*
G75*
G02*
X74605000Y-22297500I0J-62500D01*
G01*
X74605000Y-22422500D01*
G75*
G02*
X74542500Y-22485000I-62500J0D01*
G01*
X73867500Y-22485000D01*
G75*
G02*
X73805000Y-22422500I0J62500D01*
G01*
G37*
%TD.AperFunction*%
%TO.P,U2,20*%
%TA.AperFunction,SMDPad,CuDef*%
G36*
G01*
X73805000Y-21922500D02*
X73805000Y-21797500D01*
G75*
G02*
X73867500Y-21735000I62500J0D01*
G01*
X74542500Y-21735000D01*
G75*
G02*
X74605000Y-21797500I0J-62500D01*
G01*
X74605000Y-21922500D01*
G75*
G02*
X74542500Y-21985000I-62500J0D01*
G01*
X73867500Y-21985000D01*
G75*
G02*
X73805000Y-21922500I0J62500D01*
G01*
G37*
%TD.AperFunction*%
%TO.P,U2,21*%
%TA.AperFunction,SMDPad,CuDef*%
G36*
G01*
X73805000Y-21422500D02*
X73805000Y-21297500D01*
G75*
G02*
X73867500Y-21235000I62500J0D01*
G01*
X74542500Y-21235000D01*
G75*
G02*
X74605000Y-21297500I0J-62500D01*
G01*
X74605000Y-21422500D01*
G75*
G02*
X74542500Y-21485000I-62500J0D01*
G01*
X73867500Y-21485000D01*
G75*
G02*
X73805000Y-21422500I0J62500D01*
G01*
G37*
%TD.AperFunction*%
%TO.P,U2,22*%
%TA.AperFunction,SMDPad,CuDef*%
G36*
G01*
X73130000Y-20747500D02*
X73130000Y-20072500D01*
G75*
G02*
X73192500Y-20010000I62500J0D01*
G01*
X73317500Y-20010000D01*
G75*
G02*
X73380000Y-20072500I0J-62500D01*
G01*
X73380000Y-20747500D01*
G75*
G02*
X73317500Y-20810000I-62500J0D01*
G01*
X73192500Y-20810000D01*
G75*
G02*
X73130000Y-20747500I0J62500D01*
G01*
G37*
%TD.AperFunction*%
%TO.P,U2,23*%
%TA.AperFunction,SMDPad,CuDef*%
G36*
G01*
X72630000Y-20747500D02*
X72630000Y-20072500D01*
G75*
G02*
X72692500Y-20010000I62500J0D01*
G01*
X72817500Y-20010000D01*
G75*
G02*
X72880000Y-20072500I0J-62500D01*
G01*
X72880000Y-20747500D01*
G75*
G02*
X72817500Y-20810000I-62500J0D01*
G01*
X72692500Y-20810000D01*
G75*
G02*
X72630000Y-20747500I0J62500D01*
G01*
G37*
%TD.AperFunction*%
%TO.P,U2,24*%
%TO.N,RTS*%
%TA.AperFunction,SMDPad,CuDef*%
G36*
G01*
X72130000Y-20747500D02*
X72130000Y-20072500D01*
G75*
G02*
X72192500Y-20010000I62500J0D01*
G01*
X72317500Y-20010000D01*
G75*
G02*
X72380000Y-20072500I0J-62500D01*
G01*
X72380000Y-20747500D01*
G75*
G02*
X72317500Y-20810000I-62500J0D01*
G01*
X72192500Y-20810000D01*
G75*
G02*
X72130000Y-20747500I0J62500D01*
G01*
G37*
%TD.AperFunction*%
%TO.P,U2,25*%
%TO.N,RXD*%
%TA.AperFunction,SMDPad,CuDef*%
G36*
G01*
X71630000Y-20747500D02*
X71630000Y-20072500D01*
G75*
G02*
X71692500Y-20010000I62500J0D01*
G01*
X71817500Y-20010000D01*
G75*
G02*
X71880000Y-20072500I0J-62500D01*
G01*
X71880000Y-20747500D01*
G75*
G02*
X71817500Y-20810000I-62500J0D01*
G01*
X71692500Y-20810000D01*
G75*
G02*
X71630000Y-20747500I0J62500D01*
G01*
G37*
%TD.AperFunction*%
%TO.P,U2,26*%
%TO.N,TXD*%
%TA.AperFunction,SMDPad,CuDef*%
G36*
G01*
X71130000Y-20747500D02*
X71130000Y-20072500D01*
G75*
G02*
X71192500Y-20010000I62500J0D01*
G01*
X71317500Y-20010000D01*
G75*
G02*
X71380000Y-20072500I0J-62500D01*
G01*
X71380000Y-20747500D01*
G75*
G02*
X71317500Y-20810000I-62500J0D01*
G01*
X71192500Y-20810000D01*
G75*
G02*
X71130000Y-20747500I0J62500D01*
G01*
G37*
%TD.AperFunction*%
%TO.P,U2,27*%
%TO.N,N/C*%
%TA.AperFunction,SMDPad,CuDef*%
G36*
G01*
X70630000Y-20747500D02*
X70630000Y-20072500D01*
G75*
G02*
X70692500Y-20010000I62500J0D01*
G01*
X70817500Y-20010000D01*
G75*
G02*
X70880000Y-20072500I0J-62500D01*
G01*
X70880000Y-20747500D01*
G75*
G02*
X70817500Y-20810000I-62500J0D01*
G01*
X70692500Y-20810000D01*
G75*
G02*
X70630000Y-20747500I0J62500D01*
G01*
G37*
%TD.AperFunction*%
%TO.P,U2,28*%
%TO.N,DTR*%
%TA.AperFunction,SMDPad,CuDef*%
G36*
G01*
X70130000Y-20747500D02*
X70130000Y-20072500D01*
G75*
G02*
X70192500Y-20010000I62500J0D01*
G01*
X70317500Y-20010000D01*
G75*
G02*
X70380000Y-20072500I0J-62500D01*
G01*
X70380000Y-20747500D01*
G75*
G02*
X70317500Y-20810000I-62500J0D01*
G01*
X70192500Y-20810000D01*
G75*
G02*
X70130000Y-20747500I0J62500D01*
G01*
G37*
%TD.AperFunction*%
D13*
%TO.P,U2,29*%
%TO.N,GND*%
X71755000Y-22860000D03*
%TD*%
%TO.P,J2,1*%
%TO.N,GND*%
%TA.AperFunction,ComponentPad*%
G36*
G01*
X82640000Y-33235000D02*
X81190000Y-33235000D01*
G75*
G02*
X80940000Y-32985000I0J250000D01*
G01*
X80940000Y-31785000D01*
G75*
G02*
X81190000Y-31535000I250000J0D01*
G01*
X82640000Y-31535000D01*
G75*
G02*
X82890000Y-31785000I0J-250000D01*
G01*
X82890000Y-32985000D01*
G75*
G02*
X82640000Y-33235000I-250000J0D01*
G01*
G37*
%TD.AperFunction*%
D14*
%TO.P,J2,2*%
%TO.N,RTS*%
X81915000Y-29885000D03*
%TO.P,J2,3*%
%TO.N,DTR*%
X81915000Y-27385000D03*
%TO.P,J2,4*%
%TO.N,RXD*%
X81915000Y-24885000D03*
%TO.P,J2,5*%
%TO.N,TXD*%
X81915000Y-22385000D03*
%TO.P,J2,6*%
%TO.N,+3V3*%
X81915000Y-19885000D03*
%TD*%
D15*
%TO.N,GND*%
X77470000Y-25908000D03*
X77470000Y-31242000D03*
%TO.N,VDD*%
X72390000Y-26670000D03*
X68449760Y-26739676D03*
%TO.N,DTR*%
X70104000Y-18542000D03*
X79248000Y-27178000D03*
%TO.N,+3V3*%
X70866000Y-28448000D03*
X75692000Y-24638000D03*
X77056990Y-23120063D03*
X78994000Y-19812000D03*
%TD*%
D16*
%TO.N,+5V*%
X64980000Y-29916000D02*
X67000000Y-29916000D01*
X67564000Y-30480000D02*
X68850000Y-30480000D01*
X67000000Y-29916000D02*
X67564000Y-30480000D01*
X68850000Y-30480000D02*
X71628000Y-30480000D01*
X72490500Y-29617500D02*
X73660000Y-29617500D01*
X71628000Y-30480000D02*
X72490500Y-29617500D01*
X68850000Y-30480000D02*
X68850000Y-27924000D01*
X70255000Y-26519000D02*
X70255000Y-25310000D01*
X68850000Y-27924000D02*
X70255000Y-26519000D01*
X69305000Y-24360000D02*
X68858000Y-24360000D01*
X69305000Y-24360000D02*
X70255000Y-25310000D01*
%TO.N,GND*%
X64980000Y-22916000D02*
X67508000Y-22916000D01*
X68064000Y-22360000D02*
X69305000Y-22360000D01*
X67508000Y-22916000D02*
X68064000Y-22360000D01*
X71255000Y-22360000D02*
X71755000Y-22860000D01*
X69305000Y-22360000D02*
X71255000Y-22360000D01*
X74803000Y-25908000D02*
X77470000Y-25908000D01*
X71755000Y-22860000D02*
X74803000Y-25908000D01*
X76300500Y-31242000D02*
X76200000Y-31342500D01*
X77470000Y-31242000D02*
X76300500Y-31242000D01*
X76200000Y-31342500D02*
X73660000Y-31342500D01*
X70937500Y-31342500D02*
X70850000Y-31430000D01*
X73660000Y-31342500D02*
X70937500Y-31342500D01*
X62916000Y-31430000D02*
X62230000Y-32116000D01*
X70850000Y-31430000D02*
X62916000Y-31430000D01*
X61354999Y-21591001D02*
X62230000Y-20716000D01*
X61354999Y-31240999D02*
X61354999Y-21591001D01*
X62230000Y-32116000D02*
X61354999Y-31240999D01*
X77470000Y-31242000D02*
X79248000Y-31242000D01*
X80391000Y-32385000D02*
X81915000Y-32385000D01*
X79248000Y-31242000D02*
X80391000Y-32385000D01*
X64980000Y-22916000D02*
X64980000Y-21038000D01*
X64658000Y-20716000D02*
X62230000Y-20716000D01*
X64980000Y-21038000D02*
X64658000Y-20716000D01*
%TO.N,VDD*%
X75842500Y-29260000D02*
X76200000Y-29617500D01*
X75842500Y-27305000D02*
X75842500Y-29260000D01*
X72555010Y-26504990D02*
X72390000Y-26670000D01*
X75042490Y-26504990D02*
X72555010Y-26504990D01*
X75842500Y-27305000D02*
X75042490Y-26504990D01*
X68721590Y-23860000D02*
X69305000Y-23860000D01*
X68407990Y-24173600D02*
X68721590Y-23860000D01*
X68407990Y-26697906D02*
X68407990Y-24173600D01*
X68449760Y-26739676D02*
X68407990Y-26697906D01*
%TO.N,D-*%
X64980000Y-27416000D02*
X66786000Y-27416000D01*
X67818000Y-26384000D02*
X67818000Y-23878820D01*
X66786000Y-27416000D02*
X67818000Y-26384000D01*
X68336820Y-23360000D02*
X69305000Y-23360000D01*
X67818000Y-23878820D02*
X68336820Y-23360000D01*
%TO.N,D+*%
X64980000Y-25416000D02*
X66786000Y-25416000D01*
X66786000Y-25416000D02*
X67310000Y-24892000D01*
X67310000Y-24892000D02*
X67310000Y-23750410D01*
X68200410Y-22860000D02*
X69305000Y-22860000D01*
X67310000Y-23750410D02*
X68200410Y-22860000D01*
%TO.N,TXD*%
X71255000Y-20410000D02*
X71255000Y-19169000D01*
X71255000Y-19169000D02*
X71882000Y-18542000D01*
X71882000Y-18542000D02*
X74930000Y-18542000D01*
X78773000Y-22385000D02*
X81915000Y-22385000D01*
X74930000Y-18542000D02*
X78773000Y-22385000D01*
%TO.N,RXD*%
X71755000Y-20410000D02*
X71755000Y-19373010D01*
X72078010Y-19050000D02*
X74801590Y-19050000D01*
X71755000Y-19373010D02*
X72078010Y-19050000D01*
X74801590Y-19050000D02*
X78232000Y-22480410D01*
X78232000Y-22480410D02*
X78232000Y-23622000D01*
X79495000Y-24885000D02*
X81915000Y-24885000D01*
X78232000Y-23622000D02*
X79495000Y-24885000D01*
%TO.N,DTR*%
X70255000Y-18693000D02*
X70104000Y-18542000D01*
X70255000Y-20410000D02*
X70255000Y-18693000D01*
X81708000Y-27178000D02*
X81915000Y-27385000D01*
X79248000Y-27178000D02*
X81708000Y-27178000D01*
%TO.N,RTS*%
X72658978Y-19558000D02*
X74673180Y-19558000D01*
X72255000Y-19961978D02*
X72658978Y-19558000D01*
X72255000Y-20410000D02*
X72255000Y-19961978D01*
X77781990Y-25182999D02*
X78486000Y-25887009D01*
X77781990Y-22666810D02*
X77781990Y-25182999D01*
X74673180Y-19558000D02*
X77781990Y-22666810D01*
X78486000Y-25887009D02*
X78486000Y-29464000D01*
X78907000Y-29885000D02*
X81915000Y-29885000D01*
X78486000Y-29464000D02*
X78907000Y-29885000D01*
%TO.N,+3V3*%
X70850000Y-28464000D02*
X70866000Y-28448000D01*
X70850000Y-29530000D02*
X70850000Y-28464000D01*
X75692000Y-24485053D02*
X77056990Y-23120063D01*
X75692000Y-24638000D02*
X75692000Y-24485053D01*
X81842000Y-19812000D02*
X81915000Y-19885000D01*
X78994000Y-19812000D02*
X81842000Y-19812000D01*
%TO.N,Net-(R1-Pad1)*%
X70755000Y-26108002D02*
X70755000Y-25310000D01*
X72041999Y-27395001D02*
X70755000Y-26108002D01*
X73927499Y-27395001D02*
X72041999Y-27395001D01*
X74017500Y-27305000D02*
X73927499Y-27395001D01*
%TD*%
M02*
