%TF.GenerationSoftware,KiCad,Pcbnew,(5.1.9)-1*%
%TF.CreationDate,2021-04-24T14:26:43-04:00*%
%TF.ProjectId,esp_prog,6573705f-7072-46f6-972e-6b696361645f,rev?*%
%TF.SameCoordinates,Original*%
%TF.FileFunction,Legend,Top*%
%TF.FilePolarity,Positive*%
%FSLAX46Y46*%
G04 Gerber Fmt 4.6, Leading zero omitted, Abs format (unit mm)*
G04 Created by KiCad (PCBNEW (5.1.9)-1) date 2021-04-24 14:26:43*
%MOMM*%
%LPD*%
G01*
G04 APERTURE LIST*
%ADD10C,0.150000*%
%ADD11C,0.010000*%
%ADD12C,0.120000*%
%ADD13C,0.127000*%
%ADD14C,0.200000*%
%ADD15C,0.015000*%
G04 APERTURE END LIST*
D10*
X122703166Y-79628083D02*
X122618500Y-79670416D01*
X122449166Y-79670416D01*
X122364500Y-79628083D01*
X122322166Y-79543416D01*
X122322166Y-79204750D01*
X122364500Y-79120083D01*
X122449166Y-79077750D01*
X122618500Y-79077750D01*
X122703166Y-79120083D01*
X122745500Y-79204750D01*
X122745500Y-79289416D01*
X122322166Y-79374083D01*
X123084166Y-79628083D02*
X123168833Y-79670416D01*
X123338166Y-79670416D01*
X123422833Y-79628083D01*
X123465166Y-79543416D01*
X123465166Y-79501083D01*
X123422833Y-79416416D01*
X123338166Y-79374083D01*
X123211166Y-79374083D01*
X123126500Y-79331750D01*
X123084166Y-79247083D01*
X123084166Y-79204750D01*
X123126500Y-79120083D01*
X123211166Y-79077750D01*
X123338166Y-79077750D01*
X123422833Y-79120083D01*
X123846166Y-79077750D02*
X123846166Y-79966750D01*
X123846166Y-79120083D02*
X123930833Y-79077750D01*
X124100166Y-79077750D01*
X124184833Y-79120083D01*
X124227166Y-79162416D01*
X124269500Y-79247083D01*
X124269500Y-79501083D01*
X124227166Y-79585750D01*
X124184833Y-79628083D01*
X124100166Y-79670416D01*
X123930833Y-79670416D01*
X123846166Y-79628083D01*
X124777500Y-79162416D02*
X124692833Y-79120083D01*
X124650500Y-79077750D01*
X124608166Y-78993083D01*
X124608166Y-78950750D01*
X124650500Y-78866083D01*
X124692833Y-78823750D01*
X124777500Y-78781416D01*
X124946833Y-78781416D01*
X125031500Y-78823750D01*
X125073833Y-78866083D01*
X125116166Y-78950750D01*
X125116166Y-78993083D01*
X125073833Y-79077750D01*
X125031500Y-79120083D01*
X124946833Y-79162416D01*
X124777500Y-79162416D01*
X124692833Y-79204750D01*
X124650500Y-79247083D01*
X124608166Y-79331750D01*
X124608166Y-79501083D01*
X124650500Y-79585750D01*
X124692833Y-79628083D01*
X124777500Y-79670416D01*
X124946833Y-79670416D01*
X125031500Y-79628083D01*
X125073833Y-79585750D01*
X125116166Y-79501083D01*
X125116166Y-79331750D01*
X125073833Y-79247083D01*
X125031500Y-79204750D01*
X124946833Y-79162416D01*
X125454833Y-78866083D02*
X125497166Y-78823750D01*
X125581833Y-78781416D01*
X125793500Y-78781416D01*
X125878166Y-78823750D01*
X125920500Y-78866083D01*
X125962833Y-78950750D01*
X125962833Y-79035416D01*
X125920500Y-79162416D01*
X125412500Y-79670416D01*
X125962833Y-79670416D01*
X126724833Y-78781416D02*
X126555500Y-78781416D01*
X126470833Y-78823750D01*
X126428500Y-78866083D01*
X126343833Y-78993083D01*
X126301500Y-79162416D01*
X126301500Y-79501083D01*
X126343833Y-79585750D01*
X126386166Y-79628083D01*
X126470833Y-79670416D01*
X126640166Y-79670416D01*
X126724833Y-79628083D01*
X126767166Y-79585750D01*
X126809500Y-79501083D01*
X126809500Y-79289416D01*
X126767166Y-79204750D01*
X126724833Y-79162416D01*
X126640166Y-79120083D01*
X126470833Y-79120083D01*
X126386166Y-79162416D01*
X126343833Y-79204750D01*
X126301500Y-79289416D01*
X127571500Y-78781416D02*
X127402166Y-78781416D01*
X127317500Y-78823750D01*
X127275166Y-78866083D01*
X127190500Y-78993083D01*
X127148166Y-79162416D01*
X127148166Y-79501083D01*
X127190500Y-79585750D01*
X127232833Y-79628083D01*
X127317500Y-79670416D01*
X127486833Y-79670416D01*
X127571500Y-79628083D01*
X127613833Y-79585750D01*
X127656166Y-79501083D01*
X127656166Y-79289416D01*
X127613833Y-79204750D01*
X127571500Y-79162416D01*
X127486833Y-79120083D01*
X127317500Y-79120083D01*
X127232833Y-79162416D01*
X127190500Y-79204750D01*
X127148166Y-79289416D01*
X128714500Y-79077750D02*
X128714500Y-79966750D01*
X128714500Y-79120083D02*
X128799166Y-79077750D01*
X128968500Y-79077750D01*
X129053166Y-79120083D01*
X129095500Y-79162416D01*
X129137833Y-79247083D01*
X129137833Y-79501083D01*
X129095500Y-79585750D01*
X129053166Y-79628083D01*
X128968500Y-79670416D01*
X128799166Y-79670416D01*
X128714500Y-79628083D01*
X129518833Y-79670416D02*
X129518833Y-79077750D01*
X129518833Y-79247083D02*
X129561166Y-79162416D01*
X129603500Y-79120083D01*
X129688166Y-79077750D01*
X129772833Y-79077750D01*
X130196166Y-79670416D02*
X130111500Y-79628083D01*
X130069166Y-79585750D01*
X130026833Y-79501083D01*
X130026833Y-79247083D01*
X130069166Y-79162416D01*
X130111500Y-79120083D01*
X130196166Y-79077750D01*
X130323166Y-79077750D01*
X130407833Y-79120083D01*
X130450166Y-79162416D01*
X130492500Y-79247083D01*
X130492500Y-79501083D01*
X130450166Y-79585750D01*
X130407833Y-79628083D01*
X130323166Y-79670416D01*
X130196166Y-79670416D01*
X131254500Y-79077750D02*
X131254500Y-79797416D01*
X131212166Y-79882083D01*
X131169833Y-79924416D01*
X131085166Y-79966750D01*
X130958166Y-79966750D01*
X130873500Y-79924416D01*
X131254500Y-79628083D02*
X131169833Y-79670416D01*
X131000500Y-79670416D01*
X130915833Y-79628083D01*
X130873500Y-79585750D01*
X130831166Y-79501083D01*
X130831166Y-79247083D01*
X130873500Y-79162416D01*
X130915833Y-79120083D01*
X131000500Y-79077750D01*
X131169833Y-79077750D01*
X131254500Y-79120083D01*
X131677833Y-79670416D02*
X131677833Y-79077750D01*
X131677833Y-79247083D02*
X131720166Y-79162416D01*
X131762500Y-79120083D01*
X131847166Y-79077750D01*
X131931833Y-79077750D01*
X132609166Y-79670416D02*
X132609166Y-79204750D01*
X132566833Y-79120083D01*
X132482166Y-79077750D01*
X132312833Y-79077750D01*
X132228166Y-79120083D01*
X132609166Y-79628083D02*
X132524500Y-79670416D01*
X132312833Y-79670416D01*
X132228166Y-79628083D01*
X132185833Y-79543416D01*
X132185833Y-79458750D01*
X132228166Y-79374083D01*
X132312833Y-79331750D01*
X132524500Y-79331750D01*
X132609166Y-79289416D01*
X133032500Y-79670416D02*
X133032500Y-79077750D01*
X133032500Y-79162416D02*
X133074833Y-79120083D01*
X133159500Y-79077750D01*
X133286500Y-79077750D01*
X133371166Y-79120083D01*
X133413500Y-79204750D01*
X133413500Y-79670416D01*
X133413500Y-79204750D02*
X133455833Y-79120083D01*
X133540500Y-79077750D01*
X133667500Y-79077750D01*
X133752166Y-79120083D01*
X133794500Y-79204750D01*
X133794500Y-79670416D01*
X134217833Y-79670416D02*
X134217833Y-79077750D01*
X134217833Y-79162416D02*
X134260166Y-79120083D01*
X134344833Y-79077750D01*
X134471833Y-79077750D01*
X134556500Y-79120083D01*
X134598833Y-79204750D01*
X134598833Y-79670416D01*
X134598833Y-79204750D02*
X134641166Y-79120083D01*
X134725833Y-79077750D01*
X134852833Y-79077750D01*
X134937500Y-79120083D01*
X134979833Y-79204750D01*
X134979833Y-79670416D01*
X135741833Y-79628083D02*
X135657166Y-79670416D01*
X135487833Y-79670416D01*
X135403166Y-79628083D01*
X135360833Y-79543416D01*
X135360833Y-79204750D01*
X135403166Y-79120083D01*
X135487833Y-79077750D01*
X135657166Y-79077750D01*
X135741833Y-79120083D01*
X135784166Y-79204750D01*
X135784166Y-79289416D01*
X135360833Y-79374083D01*
X136165166Y-79670416D02*
X136165166Y-79077750D01*
X136165166Y-79247083D02*
X136207500Y-79162416D01*
X136249833Y-79120083D01*
X136334500Y-79077750D01*
X136419166Y-79077750D01*
X137308166Y-79077750D02*
X137519833Y-79670416D01*
X137731500Y-79077750D01*
X138239500Y-78781416D02*
X138324166Y-78781416D01*
X138408833Y-78823750D01*
X138451166Y-78866083D01*
X138493500Y-78950750D01*
X138535833Y-79120083D01*
X138535833Y-79331750D01*
X138493500Y-79501083D01*
X138451166Y-79585750D01*
X138408833Y-79628083D01*
X138324166Y-79670416D01*
X138239500Y-79670416D01*
X138154833Y-79628083D01*
X138112500Y-79585750D01*
X138070166Y-79501083D01*
X138027833Y-79331750D01*
X138027833Y-79120083D01*
X138070166Y-78950750D01*
X138112500Y-78866083D01*
X138154833Y-78823750D01*
X138239500Y-78781416D01*
X138916833Y-79585750D02*
X138959166Y-79628083D01*
X138916833Y-79670416D01*
X138874500Y-79628083D01*
X138916833Y-79585750D01*
X138916833Y-79670416D01*
X139805833Y-79670416D02*
X139297833Y-79670416D01*
X139551833Y-79670416D02*
X139551833Y-78781416D01*
X139467166Y-78908416D01*
X139382500Y-78993083D01*
X139297833Y-79035416D01*
X121369666Y-80561250D02*
X121369666Y-81280916D01*
X121327333Y-81365583D01*
X121285000Y-81407916D01*
X121200333Y-81450250D01*
X121073333Y-81450250D01*
X120988666Y-81407916D01*
X121369666Y-81111583D02*
X121285000Y-81153916D01*
X121115666Y-81153916D01*
X121031000Y-81111583D01*
X120988666Y-81069250D01*
X120946333Y-80984583D01*
X120946333Y-80730583D01*
X120988666Y-80645916D01*
X121031000Y-80603583D01*
X121115666Y-80561250D01*
X121285000Y-80561250D01*
X121369666Y-80603583D01*
X121793000Y-81153916D02*
X121793000Y-80561250D01*
X121793000Y-80264916D02*
X121750666Y-80307250D01*
X121793000Y-80349583D01*
X121835333Y-80307250D01*
X121793000Y-80264916D01*
X121793000Y-80349583D01*
X122089333Y-80561250D02*
X122428000Y-80561250D01*
X122216333Y-80264916D02*
X122216333Y-81026916D01*
X122258666Y-81111583D01*
X122343333Y-81153916D01*
X122428000Y-81153916D01*
X122724333Y-81153916D02*
X122724333Y-80264916D01*
X123105333Y-81153916D02*
X123105333Y-80688250D01*
X123063000Y-80603583D01*
X122978333Y-80561250D01*
X122851333Y-80561250D01*
X122766666Y-80603583D01*
X122724333Y-80645916D01*
X123909666Y-80561250D02*
X123909666Y-81153916D01*
X123528666Y-80561250D02*
X123528666Y-81026916D01*
X123571000Y-81111583D01*
X123655666Y-81153916D01*
X123782666Y-81153916D01*
X123867333Y-81111583D01*
X123909666Y-81069250D01*
X124333000Y-81153916D02*
X124333000Y-80264916D01*
X124333000Y-80603583D02*
X124417666Y-80561250D01*
X124587000Y-80561250D01*
X124671666Y-80603583D01*
X124714000Y-80645916D01*
X124756333Y-80730583D01*
X124756333Y-80984583D01*
X124714000Y-81069250D01*
X124671666Y-81111583D01*
X124587000Y-81153916D01*
X124417666Y-81153916D01*
X124333000Y-81111583D01*
X125137333Y-81069250D02*
X125179666Y-81111583D01*
X125137333Y-81153916D01*
X125095000Y-81111583D01*
X125137333Y-81069250D01*
X125137333Y-81153916D01*
X125941666Y-81111583D02*
X125857000Y-81153916D01*
X125687666Y-81153916D01*
X125603000Y-81111583D01*
X125560666Y-81069250D01*
X125518333Y-80984583D01*
X125518333Y-80730583D01*
X125560666Y-80645916D01*
X125603000Y-80603583D01*
X125687666Y-80561250D01*
X125857000Y-80561250D01*
X125941666Y-80603583D01*
X126449666Y-81153916D02*
X126365000Y-81111583D01*
X126322666Y-81069250D01*
X126280333Y-80984583D01*
X126280333Y-80730583D01*
X126322666Y-80645916D01*
X126365000Y-80603583D01*
X126449666Y-80561250D01*
X126576666Y-80561250D01*
X126661333Y-80603583D01*
X126703666Y-80645916D01*
X126746000Y-80730583D01*
X126746000Y-80984583D01*
X126703666Y-81069250D01*
X126661333Y-81111583D01*
X126576666Y-81153916D01*
X126449666Y-81153916D01*
X127127000Y-81153916D02*
X127127000Y-80561250D01*
X127127000Y-80645916D02*
X127169333Y-80603583D01*
X127254000Y-80561250D01*
X127381000Y-80561250D01*
X127465666Y-80603583D01*
X127508000Y-80688250D01*
X127508000Y-81153916D01*
X127508000Y-80688250D02*
X127550333Y-80603583D01*
X127635000Y-80561250D01*
X127762000Y-80561250D01*
X127846666Y-80603583D01*
X127889000Y-80688250D01*
X127889000Y-81153916D01*
X128947333Y-80222583D02*
X128185333Y-81365583D01*
X129624666Y-80561250D02*
X129624666Y-81280916D01*
X129582333Y-81365583D01*
X129540000Y-81407916D01*
X129455333Y-81450250D01*
X129328333Y-81450250D01*
X129243666Y-81407916D01*
X129624666Y-81111583D02*
X129540000Y-81153916D01*
X129370666Y-81153916D01*
X129286000Y-81111583D01*
X129243666Y-81069250D01*
X129201333Y-80984583D01*
X129201333Y-80730583D01*
X129243666Y-80645916D01*
X129286000Y-80603583D01*
X129370666Y-80561250D01*
X129540000Y-80561250D01*
X129624666Y-80603583D01*
X130048000Y-81153916D02*
X130048000Y-80561250D01*
X130048000Y-80645916D02*
X130090333Y-80603583D01*
X130175000Y-80561250D01*
X130302000Y-80561250D01*
X130386666Y-80603583D01*
X130429000Y-80688250D01*
X130429000Y-81153916D01*
X130429000Y-80688250D02*
X130471333Y-80603583D01*
X130556000Y-80561250D01*
X130683000Y-80561250D01*
X130767666Y-80603583D01*
X130810000Y-80688250D01*
X130810000Y-81153916D01*
X131614333Y-81153916D02*
X131614333Y-80688250D01*
X131572000Y-80603583D01*
X131487333Y-80561250D01*
X131318000Y-80561250D01*
X131233333Y-80603583D01*
X131614333Y-81111583D02*
X131529666Y-81153916D01*
X131318000Y-81153916D01*
X131233333Y-81111583D01*
X131191000Y-81026916D01*
X131191000Y-80942250D01*
X131233333Y-80857583D01*
X131318000Y-80815250D01*
X131529666Y-80815250D01*
X131614333Y-80772916D01*
X132418666Y-81111583D02*
X132334000Y-81153916D01*
X132164666Y-81153916D01*
X132080000Y-81111583D01*
X132037666Y-81069250D01*
X131995333Y-80984583D01*
X131995333Y-80730583D01*
X132037666Y-80645916D01*
X132080000Y-80603583D01*
X132164666Y-80561250D01*
X132334000Y-80561250D01*
X132418666Y-80603583D01*
X132799666Y-81153916D02*
X132799666Y-80264916D01*
X132884333Y-80815250D02*
X133138333Y-81153916D01*
X133138333Y-80561250D02*
X132799666Y-80899916D01*
X133519333Y-81153916D02*
X133519333Y-80561250D01*
X133519333Y-80264916D02*
X133477000Y-80307250D01*
X133519333Y-80349583D01*
X133561666Y-80307250D01*
X133519333Y-80264916D01*
X133519333Y-80349583D01*
X134281333Y-81111583D02*
X134196666Y-81153916D01*
X134027333Y-81153916D01*
X133942666Y-81111583D01*
X133900333Y-81026916D01*
X133900333Y-80688250D01*
X133942666Y-80603583D01*
X134027333Y-80561250D01*
X134196666Y-80561250D01*
X134281333Y-80603583D01*
X134323666Y-80688250D01*
X134323666Y-80772916D01*
X133900333Y-80857583D01*
X135339666Y-80222583D02*
X134577666Y-81365583D01*
X135974666Y-81111583D02*
X135890000Y-81153916D01*
X135720666Y-81153916D01*
X135636000Y-81111583D01*
X135593666Y-81026916D01*
X135593666Y-80688250D01*
X135636000Y-80603583D01*
X135720666Y-80561250D01*
X135890000Y-80561250D01*
X135974666Y-80603583D01*
X136017000Y-80688250D01*
X136017000Y-80772916D01*
X135593666Y-80857583D01*
X136355666Y-81111583D02*
X136440333Y-81153916D01*
X136609666Y-81153916D01*
X136694333Y-81111583D01*
X136736666Y-81026916D01*
X136736666Y-80984583D01*
X136694333Y-80899916D01*
X136609666Y-80857583D01*
X136482666Y-80857583D01*
X136398000Y-80815250D01*
X136355666Y-80730583D01*
X136355666Y-80688250D01*
X136398000Y-80603583D01*
X136482666Y-80561250D01*
X136609666Y-80561250D01*
X136694333Y-80603583D01*
X137117666Y-80561250D02*
X137117666Y-81450250D01*
X137117666Y-80603583D02*
X137202333Y-80561250D01*
X137371666Y-80561250D01*
X137456333Y-80603583D01*
X137498666Y-80645916D01*
X137541000Y-80730583D01*
X137541000Y-80984583D01*
X137498666Y-81069250D01*
X137456333Y-81111583D01*
X137371666Y-81153916D01*
X137202333Y-81153916D01*
X137117666Y-81111583D01*
X137710333Y-81238583D02*
X138387666Y-81238583D01*
X138599333Y-80561250D02*
X138599333Y-81450250D01*
X138599333Y-80603583D02*
X138684000Y-80561250D01*
X138853333Y-80561250D01*
X138938000Y-80603583D01*
X138980333Y-80645916D01*
X139022666Y-80730583D01*
X139022666Y-80984583D01*
X138980333Y-81069250D01*
X138938000Y-81111583D01*
X138853333Y-81153916D01*
X138684000Y-81153916D01*
X138599333Y-81111583D01*
X139403666Y-81153916D02*
X139403666Y-80561250D01*
X139403666Y-80730583D02*
X139446000Y-80645916D01*
X139488333Y-80603583D01*
X139573000Y-80561250D01*
X139657666Y-80561250D01*
X140081000Y-81153916D02*
X139996333Y-81111583D01*
X139954000Y-81069250D01*
X139911666Y-80984583D01*
X139911666Y-80730583D01*
X139954000Y-80645916D01*
X139996333Y-80603583D01*
X140081000Y-80561250D01*
X140208000Y-80561250D01*
X140292666Y-80603583D01*
X140335000Y-80645916D01*
X140377333Y-80730583D01*
X140377333Y-80984583D01*
X140335000Y-81069250D01*
X140292666Y-81111583D01*
X140208000Y-81153916D01*
X140081000Y-81153916D01*
X141139333Y-80561250D02*
X141139333Y-81280916D01*
X141097000Y-81365583D01*
X141054666Y-81407916D01*
X140970000Y-81450250D01*
X140843000Y-81450250D01*
X140758333Y-81407916D01*
X141139333Y-81111583D02*
X141054666Y-81153916D01*
X140885333Y-81153916D01*
X140800666Y-81111583D01*
X140758333Y-81069250D01*
X140716000Y-80984583D01*
X140716000Y-80730583D01*
X140758333Y-80645916D01*
X140800666Y-80603583D01*
X140885333Y-80561250D01*
X141054666Y-80561250D01*
X141139333Y-80603583D01*
D11*
%TO.C,G\u002A\u002A\u002A*%
G36*
X123140173Y-94000232D02*
G01*
X123333980Y-94028877D01*
X123522622Y-94075918D01*
X123704994Y-94140741D01*
X123879988Y-94222733D01*
X124046499Y-94321280D01*
X124203420Y-94435768D01*
X124349643Y-94565584D01*
X124484063Y-94710115D01*
X124605572Y-94868746D01*
X124713064Y-95040865D01*
X124753168Y-95115856D01*
X124829328Y-95286726D01*
X124889249Y-95467333D01*
X124932281Y-95654387D01*
X124957777Y-95844596D01*
X124965088Y-96034667D01*
X124959292Y-96162774D01*
X124940829Y-96328494D01*
X124912692Y-96480738D01*
X124873527Y-96624570D01*
X124821984Y-96765051D01*
X124764861Y-96890840D01*
X124697222Y-97019237D01*
X124625954Y-97135357D01*
X124546971Y-97245061D01*
X124456183Y-97354213D01*
X124395013Y-97421164D01*
X124314576Y-97500233D01*
X124222141Y-97580280D01*
X124123100Y-97657193D01*
X124022844Y-97726857D01*
X123926766Y-97785162D01*
X123896606Y-97801358D01*
X123861359Y-97820696D01*
X123841050Y-97835528D01*
X123831913Y-97849293D01*
X123830117Y-97862085D01*
X123825240Y-97888934D01*
X123809007Y-97906996D01*
X123778882Y-97917568D01*
X123732325Y-97921950D01*
X123712439Y-97922259D01*
X123656333Y-97925084D01*
X123601688Y-97934384D01*
X123538949Y-97951794D01*
X123537725Y-97952180D01*
X123378980Y-97994591D01*
X123215422Y-98022555D01*
X123102013Y-98033683D01*
X123034052Y-98038285D01*
X122978917Y-98041049D01*
X122930059Y-98041967D01*
X122880930Y-98041031D01*
X122824981Y-98038235D01*
X122755665Y-98033571D01*
X122751848Y-98033297D01*
X122586026Y-98013615D01*
X122423806Y-97978243D01*
X122262722Y-97926359D01*
X122100304Y-97857141D01*
X121997008Y-97802842D01*
X123068227Y-97802842D01*
X123077947Y-97804653D01*
X123105573Y-97806149D01*
X123148692Y-97807291D01*
X123204893Y-97808041D01*
X123271763Y-97808362D01*
X123346890Y-97808215D01*
X123390660Y-97807922D01*
X123713240Y-97805240D01*
X123716015Y-97624671D01*
X123716401Y-97564404D01*
X123715724Y-97510746D01*
X123714108Y-97467289D01*
X123711676Y-97437624D01*
X123709175Y-97426138D01*
X123695696Y-97412889D01*
X123669263Y-97394916D01*
X123635401Y-97375942D01*
X123632758Y-97374604D01*
X123553453Y-97343793D01*
X123477962Y-97332905D01*
X123406398Y-97341882D01*
X123338870Y-97370668D01*
X123275489Y-97419205D01*
X123216366Y-97487437D01*
X123161611Y-97575306D01*
X123133563Y-97631628D01*
X123113231Y-97677466D01*
X123094771Y-97722377D01*
X123079967Y-97761684D01*
X123070604Y-97790708D01*
X123068227Y-97802842D01*
X121997008Y-97802842D01*
X121934086Y-97769767D01*
X121898239Y-97748900D01*
X121735293Y-97640843D01*
X121583469Y-97516591D01*
X121443976Y-97377684D01*
X121318020Y-97225662D01*
X121206811Y-97062069D01*
X121111556Y-96888443D01*
X121033463Y-96706327D01*
X120997012Y-96599055D01*
X120965651Y-96478102D01*
X120941219Y-96344157D01*
X120924292Y-96203443D01*
X120915448Y-96062183D01*
X120915381Y-96012000D01*
X121092298Y-96012000D01*
X121092399Y-96092061D01*
X121093126Y-96155723D01*
X121094736Y-96206903D01*
X121097484Y-96249520D01*
X121101628Y-96287489D01*
X121107422Y-96324730D01*
X121115124Y-96365160D01*
X121115524Y-96367136D01*
X121164559Y-96559972D01*
X121231414Y-96743340D01*
X121315585Y-96916557D01*
X121416569Y-97078940D01*
X121533861Y-97229806D01*
X121666959Y-97368471D01*
X121815359Y-97494255D01*
X121978558Y-97606472D01*
X122067231Y-97658207D01*
X122100830Y-97675613D01*
X122142647Y-97695678D01*
X122188315Y-97716501D01*
X122233464Y-97736180D01*
X122273726Y-97752816D01*
X122304734Y-97764506D01*
X122322118Y-97769349D01*
X122322681Y-97769382D01*
X122328525Y-97760426D01*
X122332652Y-97732788D01*
X122335135Y-97685834D01*
X122335776Y-97655380D01*
X122336331Y-97625731D01*
X122337415Y-97577773D01*
X122338975Y-97513506D01*
X122340960Y-97434932D01*
X122342950Y-97358200D01*
X123311920Y-97358200D01*
X123317000Y-97363280D01*
X123322080Y-97358200D01*
X123317000Y-97353120D01*
X123311920Y-97358200D01*
X122342950Y-97358200D01*
X122343317Y-97344053D01*
X122345994Y-97242870D01*
X122348939Y-97133385D01*
X122352100Y-97017599D01*
X122355424Y-96897515D01*
X122357174Y-96834960D01*
X122360498Y-96716146D01*
X122363650Y-96602656D01*
X122366583Y-96496225D01*
X122369251Y-96398588D01*
X122371606Y-96311481D01*
X122373603Y-96236640D01*
X122375194Y-96175798D01*
X122376333Y-96130692D01*
X122376973Y-96103057D01*
X122377099Y-96095358D01*
X122386973Y-96057005D01*
X122402346Y-96036729D01*
X122427493Y-96011582D01*
X123114369Y-96014331D01*
X123249259Y-96014886D01*
X123365285Y-96015426D01*
X123463904Y-96015996D01*
X123546571Y-96016642D01*
X123614743Y-96017413D01*
X123669875Y-96018353D01*
X123713423Y-96019511D01*
X123746845Y-96020932D01*
X123771595Y-96022664D01*
X123789130Y-96024752D01*
X123800906Y-96027244D01*
X123808379Y-96030186D01*
X123813005Y-96033625D01*
X123815662Y-96036801D01*
X123818368Y-96043045D01*
X123820725Y-96054725D01*
X123822755Y-96073123D01*
X123824481Y-96099517D01*
X123825925Y-96135190D01*
X123827110Y-96181421D01*
X123828059Y-96239491D01*
X123828795Y-96310680D01*
X123829340Y-96396269D01*
X123829718Y-96497539D01*
X123829951Y-96615770D01*
X123830062Y-96752242D01*
X123830080Y-96847061D01*
X123830126Y-96995284D01*
X123830279Y-97124419D01*
X123830561Y-97235696D01*
X123830993Y-97330346D01*
X123831597Y-97409602D01*
X123832396Y-97474694D01*
X123833409Y-97526854D01*
X123834660Y-97567313D01*
X123836170Y-97597301D01*
X123837960Y-97618051D01*
X123840053Y-97630793D01*
X123842469Y-97636759D01*
X123844016Y-97637600D01*
X123864773Y-97631167D01*
X123897984Y-97613200D01*
X123940940Y-97585692D01*
X123990933Y-97550638D01*
X124045256Y-97510032D01*
X124101200Y-97465868D01*
X124156058Y-97420140D01*
X124207121Y-97374843D01*
X124230040Y-97353310D01*
X124363142Y-97211629D01*
X124479396Y-97058660D01*
X124578600Y-96894769D01*
X124660552Y-96720324D01*
X124725048Y-96535692D01*
X124762326Y-96388512D01*
X124771095Y-96346263D01*
X124777767Y-96309488D01*
X124782624Y-96274323D01*
X124785952Y-96236907D01*
X124788035Y-96193376D01*
X124789156Y-96139869D01*
X124789600Y-96072521D01*
X124789661Y-96017080D01*
X124789514Y-95938163D01*
X124788882Y-95875702D01*
X124787482Y-95825835D01*
X124785028Y-95784699D01*
X124781238Y-95748431D01*
X124775827Y-95713169D01*
X124768509Y-95675050D01*
X124762326Y-95645647D01*
X124711574Y-95455454D01*
X124643294Y-95274637D01*
X124558385Y-95104071D01*
X124457745Y-94944633D01*
X124342272Y-94797198D01*
X124212864Y-94662643D01*
X124070420Y-94541843D01*
X123915838Y-94435674D01*
X123750017Y-94345012D01*
X123573855Y-94270732D01*
X123388250Y-94213712D01*
X123266200Y-94186918D01*
X123196044Y-94177102D01*
X123111112Y-94170415D01*
X123016549Y-94166824D01*
X122917498Y-94166295D01*
X122819103Y-94168793D01*
X122726509Y-94174284D01*
X122644861Y-94182735D01*
X122591966Y-94191382D01*
X122399369Y-94240089D01*
X122216733Y-94306214D01*
X122044533Y-94389542D01*
X121883241Y-94489854D01*
X121793000Y-94557227D01*
X121644609Y-94688134D01*
X121512365Y-94831227D01*
X121396687Y-94985828D01*
X121297995Y-95151257D01*
X121216711Y-95326835D01*
X121153255Y-95511883D01*
X121120158Y-95644383D01*
X121111219Y-95687630D01*
X121104439Y-95725262D01*
X121099518Y-95761249D01*
X121096154Y-95799563D01*
X121094047Y-95844176D01*
X121092895Y-95899057D01*
X121092399Y-95968180D01*
X121092298Y-96012000D01*
X120915381Y-96012000D01*
X120915266Y-95926600D01*
X120923634Y-95808800D01*
X120955676Y-95610809D01*
X121005333Y-95418632D01*
X121071848Y-95233974D01*
X121154463Y-95058540D01*
X121252419Y-94894035D01*
X121364959Y-94742164D01*
X121431720Y-94665800D01*
X121582920Y-94516406D01*
X121742421Y-94385466D01*
X121910065Y-94273060D01*
X122085696Y-94179268D01*
X122269154Y-94104170D01*
X122460282Y-94047846D01*
X122658923Y-94010377D01*
X122741496Y-94000582D01*
X122942310Y-93990596D01*
X123140173Y-94000232D01*
G37*
X123140173Y-94000232D02*
X123333980Y-94028877D01*
X123522622Y-94075918D01*
X123704994Y-94140741D01*
X123879988Y-94222733D01*
X124046499Y-94321280D01*
X124203420Y-94435768D01*
X124349643Y-94565584D01*
X124484063Y-94710115D01*
X124605572Y-94868746D01*
X124713064Y-95040865D01*
X124753168Y-95115856D01*
X124829328Y-95286726D01*
X124889249Y-95467333D01*
X124932281Y-95654387D01*
X124957777Y-95844596D01*
X124965088Y-96034667D01*
X124959292Y-96162774D01*
X124940829Y-96328494D01*
X124912692Y-96480738D01*
X124873527Y-96624570D01*
X124821984Y-96765051D01*
X124764861Y-96890840D01*
X124697222Y-97019237D01*
X124625954Y-97135357D01*
X124546971Y-97245061D01*
X124456183Y-97354213D01*
X124395013Y-97421164D01*
X124314576Y-97500233D01*
X124222141Y-97580280D01*
X124123100Y-97657193D01*
X124022844Y-97726857D01*
X123926766Y-97785162D01*
X123896606Y-97801358D01*
X123861359Y-97820696D01*
X123841050Y-97835528D01*
X123831913Y-97849293D01*
X123830117Y-97862085D01*
X123825240Y-97888934D01*
X123809007Y-97906996D01*
X123778882Y-97917568D01*
X123732325Y-97921950D01*
X123712439Y-97922259D01*
X123656333Y-97925084D01*
X123601688Y-97934384D01*
X123538949Y-97951794D01*
X123537725Y-97952180D01*
X123378980Y-97994591D01*
X123215422Y-98022555D01*
X123102013Y-98033683D01*
X123034052Y-98038285D01*
X122978917Y-98041049D01*
X122930059Y-98041967D01*
X122880930Y-98041031D01*
X122824981Y-98038235D01*
X122755665Y-98033571D01*
X122751848Y-98033297D01*
X122586026Y-98013615D01*
X122423806Y-97978243D01*
X122262722Y-97926359D01*
X122100304Y-97857141D01*
X121997008Y-97802842D01*
X123068227Y-97802842D01*
X123077947Y-97804653D01*
X123105573Y-97806149D01*
X123148692Y-97807291D01*
X123204893Y-97808041D01*
X123271763Y-97808362D01*
X123346890Y-97808215D01*
X123390660Y-97807922D01*
X123713240Y-97805240D01*
X123716015Y-97624671D01*
X123716401Y-97564404D01*
X123715724Y-97510746D01*
X123714108Y-97467289D01*
X123711676Y-97437624D01*
X123709175Y-97426138D01*
X123695696Y-97412889D01*
X123669263Y-97394916D01*
X123635401Y-97375942D01*
X123632758Y-97374604D01*
X123553453Y-97343793D01*
X123477962Y-97332905D01*
X123406398Y-97341882D01*
X123338870Y-97370668D01*
X123275489Y-97419205D01*
X123216366Y-97487437D01*
X123161611Y-97575306D01*
X123133563Y-97631628D01*
X123113231Y-97677466D01*
X123094771Y-97722377D01*
X123079967Y-97761684D01*
X123070604Y-97790708D01*
X123068227Y-97802842D01*
X121997008Y-97802842D01*
X121934086Y-97769767D01*
X121898239Y-97748900D01*
X121735293Y-97640843D01*
X121583469Y-97516591D01*
X121443976Y-97377684D01*
X121318020Y-97225662D01*
X121206811Y-97062069D01*
X121111556Y-96888443D01*
X121033463Y-96706327D01*
X120997012Y-96599055D01*
X120965651Y-96478102D01*
X120941219Y-96344157D01*
X120924292Y-96203443D01*
X120915448Y-96062183D01*
X120915381Y-96012000D01*
X121092298Y-96012000D01*
X121092399Y-96092061D01*
X121093126Y-96155723D01*
X121094736Y-96206903D01*
X121097484Y-96249520D01*
X121101628Y-96287489D01*
X121107422Y-96324730D01*
X121115124Y-96365160D01*
X121115524Y-96367136D01*
X121164559Y-96559972D01*
X121231414Y-96743340D01*
X121315585Y-96916557D01*
X121416569Y-97078940D01*
X121533861Y-97229806D01*
X121666959Y-97368471D01*
X121815359Y-97494255D01*
X121978558Y-97606472D01*
X122067231Y-97658207D01*
X122100830Y-97675613D01*
X122142647Y-97695678D01*
X122188315Y-97716501D01*
X122233464Y-97736180D01*
X122273726Y-97752816D01*
X122304734Y-97764506D01*
X122322118Y-97769349D01*
X122322681Y-97769382D01*
X122328525Y-97760426D01*
X122332652Y-97732788D01*
X122335135Y-97685834D01*
X122335776Y-97655380D01*
X122336331Y-97625731D01*
X122337415Y-97577773D01*
X122338975Y-97513506D01*
X122340960Y-97434932D01*
X122342950Y-97358200D01*
X123311920Y-97358200D01*
X123317000Y-97363280D01*
X123322080Y-97358200D01*
X123317000Y-97353120D01*
X123311920Y-97358200D01*
X122342950Y-97358200D01*
X122343317Y-97344053D01*
X122345994Y-97242870D01*
X122348939Y-97133385D01*
X122352100Y-97017599D01*
X122355424Y-96897515D01*
X122357174Y-96834960D01*
X122360498Y-96716146D01*
X122363650Y-96602656D01*
X122366583Y-96496225D01*
X122369251Y-96398588D01*
X122371606Y-96311481D01*
X122373603Y-96236640D01*
X122375194Y-96175798D01*
X122376333Y-96130692D01*
X122376973Y-96103057D01*
X122377099Y-96095358D01*
X122386973Y-96057005D01*
X122402346Y-96036729D01*
X122427493Y-96011582D01*
X123114369Y-96014331D01*
X123249259Y-96014886D01*
X123365285Y-96015426D01*
X123463904Y-96015996D01*
X123546571Y-96016642D01*
X123614743Y-96017413D01*
X123669875Y-96018353D01*
X123713423Y-96019511D01*
X123746845Y-96020932D01*
X123771595Y-96022664D01*
X123789130Y-96024752D01*
X123800906Y-96027244D01*
X123808379Y-96030186D01*
X123813005Y-96033625D01*
X123815662Y-96036801D01*
X123818368Y-96043045D01*
X123820725Y-96054725D01*
X123822755Y-96073123D01*
X123824481Y-96099517D01*
X123825925Y-96135190D01*
X123827110Y-96181421D01*
X123828059Y-96239491D01*
X123828795Y-96310680D01*
X123829340Y-96396269D01*
X123829718Y-96497539D01*
X123829951Y-96615770D01*
X123830062Y-96752242D01*
X123830080Y-96847061D01*
X123830126Y-96995284D01*
X123830279Y-97124419D01*
X123830561Y-97235696D01*
X123830993Y-97330346D01*
X123831597Y-97409602D01*
X123832396Y-97474694D01*
X123833409Y-97526854D01*
X123834660Y-97567313D01*
X123836170Y-97597301D01*
X123837960Y-97618051D01*
X123840053Y-97630793D01*
X123842469Y-97636759D01*
X123844016Y-97637600D01*
X123864773Y-97631167D01*
X123897984Y-97613200D01*
X123940940Y-97585692D01*
X123990933Y-97550638D01*
X124045256Y-97510032D01*
X124101200Y-97465868D01*
X124156058Y-97420140D01*
X124207121Y-97374843D01*
X124230040Y-97353310D01*
X124363142Y-97211629D01*
X124479396Y-97058660D01*
X124578600Y-96894769D01*
X124660552Y-96720324D01*
X124725048Y-96535692D01*
X124762326Y-96388512D01*
X124771095Y-96346263D01*
X124777767Y-96309488D01*
X124782624Y-96274323D01*
X124785952Y-96236907D01*
X124788035Y-96193376D01*
X124789156Y-96139869D01*
X124789600Y-96072521D01*
X124789661Y-96017080D01*
X124789514Y-95938163D01*
X124788882Y-95875702D01*
X124787482Y-95825835D01*
X124785028Y-95784699D01*
X124781238Y-95748431D01*
X124775827Y-95713169D01*
X124768509Y-95675050D01*
X124762326Y-95645647D01*
X124711574Y-95455454D01*
X124643294Y-95274637D01*
X124558385Y-95104071D01*
X124457745Y-94944633D01*
X124342272Y-94797198D01*
X124212864Y-94662643D01*
X124070420Y-94541843D01*
X123915838Y-94435674D01*
X123750017Y-94345012D01*
X123573855Y-94270732D01*
X123388250Y-94213712D01*
X123266200Y-94186918D01*
X123196044Y-94177102D01*
X123111112Y-94170415D01*
X123016549Y-94166824D01*
X122917498Y-94166295D01*
X122819103Y-94168793D01*
X122726509Y-94174284D01*
X122644861Y-94182735D01*
X122591966Y-94191382D01*
X122399369Y-94240089D01*
X122216733Y-94306214D01*
X122044533Y-94389542D01*
X121883241Y-94489854D01*
X121793000Y-94557227D01*
X121644609Y-94688134D01*
X121512365Y-94831227D01*
X121396687Y-94985828D01*
X121297995Y-95151257D01*
X121216711Y-95326835D01*
X121153255Y-95511883D01*
X121120158Y-95644383D01*
X121111219Y-95687630D01*
X121104439Y-95725262D01*
X121099518Y-95761249D01*
X121096154Y-95799563D01*
X121094047Y-95844176D01*
X121092895Y-95899057D01*
X121092399Y-95968180D01*
X121092298Y-96012000D01*
X120915381Y-96012000D01*
X120915266Y-95926600D01*
X120923634Y-95808800D01*
X120955676Y-95610809D01*
X121005333Y-95418632D01*
X121071848Y-95233974D01*
X121154463Y-95058540D01*
X121252419Y-94894035D01*
X121364959Y-94742164D01*
X121431720Y-94665800D01*
X121582920Y-94516406D01*
X121742421Y-94385466D01*
X121910065Y-94273060D01*
X122085696Y-94179268D01*
X122269154Y-94104170D01*
X122460282Y-94047846D01*
X122658923Y-94010377D01*
X122741496Y-94000582D01*
X122942310Y-93990596D01*
X123140173Y-94000232D01*
G36*
X121946289Y-94929713D02*
G01*
X122047289Y-94958322D01*
X122140532Y-95004959D01*
X122224830Y-95068841D01*
X122298997Y-95149185D01*
X122361847Y-95245207D01*
X122377553Y-95275400D01*
X122407377Y-95341131D01*
X122427836Y-95400898D01*
X122440373Y-95461392D01*
X122446429Y-95529304D01*
X122447547Y-95600114D01*
X122443995Y-95686247D01*
X122433349Y-95761539D01*
X122413847Y-95832816D01*
X122383725Y-95906908D01*
X122351800Y-95970901D01*
X122291014Y-96067116D01*
X122218265Y-96149912D01*
X122135538Y-96217659D01*
X122044816Y-96268730D01*
X121949432Y-96301179D01*
X121895110Y-96310523D01*
X121836746Y-96314995D01*
X121782998Y-96314198D01*
X121752360Y-96310210D01*
X121667711Y-96288588D01*
X121595611Y-96260385D01*
X121528542Y-96222224D01*
X121481563Y-96188548D01*
X121414547Y-96126156D01*
X121353578Y-96048214D01*
X121301439Y-95959225D01*
X121260918Y-95863696D01*
X121242533Y-95801881D01*
X121231682Y-95739003D01*
X121226007Y-95664244D01*
X121225666Y-95611586D01*
X121351389Y-95611586D01*
X121351963Y-95674779D01*
X121354308Y-95731948D01*
X121358476Y-95777838D01*
X121362006Y-95798357D01*
X121388162Y-95875662D01*
X121429005Y-95950908D01*
X121481530Y-96020975D01*
X121542734Y-96082747D01*
X121609612Y-96133104D01*
X121679161Y-96168929D01*
X121734502Y-96184994D01*
X121789074Y-96190198D01*
X121852626Y-96189153D01*
X121916035Y-96182477D01*
X121970179Y-96170792D01*
X121977439Y-96168477D01*
X122025543Y-96147742D01*
X122077859Y-96118063D01*
X122128061Y-96083659D01*
X122169824Y-96048747D01*
X122190662Y-96026252D01*
X122245575Y-95945373D01*
X122284510Y-95862067D01*
X122308805Y-95772158D01*
X122319802Y-95671472D01*
X122320766Y-95620840D01*
X122319899Y-95564299D01*
X122317279Y-95521550D01*
X122311988Y-95486083D01*
X122303105Y-95451388D01*
X122292078Y-95417737D01*
X122273792Y-95370501D01*
X122252009Y-95322200D01*
X122231196Y-95282683D01*
X122229616Y-95280046D01*
X122183980Y-95218155D01*
X122125506Y-95158382D01*
X122060918Y-95106975D01*
X122010827Y-95076808D01*
X121979744Y-95061737D01*
X121954003Y-95052066D01*
X121927415Y-95046593D01*
X121893786Y-95044115D01*
X121846925Y-95043433D01*
X121838720Y-95043412D01*
X121771630Y-95045237D01*
X121717273Y-95052317D01*
X121668329Y-95066624D01*
X121617477Y-95090130D01*
X121574223Y-95114661D01*
X121502135Y-95169204D01*
X121441742Y-95239086D01*
X121394735Y-95321961D01*
X121365798Y-95403735D01*
X121359791Y-95438446D01*
X121355353Y-95488163D01*
X121352536Y-95547629D01*
X121351389Y-95611586D01*
X121225666Y-95611586D01*
X121225493Y-95585002D01*
X121230123Y-95508671D01*
X121239883Y-95442649D01*
X121243331Y-95427800D01*
X121276140Y-95329396D01*
X121321991Y-95235582D01*
X121378276Y-95150388D01*
X121442392Y-95077846D01*
X121500813Y-95029345D01*
X121573984Y-94982724D01*
X121641464Y-94950537D01*
X121709490Y-94930766D01*
X121784296Y-94921391D01*
X121838720Y-94919915D01*
X121946289Y-94929713D01*
G37*
X121946289Y-94929713D02*
X122047289Y-94958322D01*
X122140532Y-95004959D01*
X122224830Y-95068841D01*
X122298997Y-95149185D01*
X122361847Y-95245207D01*
X122377553Y-95275400D01*
X122407377Y-95341131D01*
X122427836Y-95400898D01*
X122440373Y-95461392D01*
X122446429Y-95529304D01*
X122447547Y-95600114D01*
X122443995Y-95686247D01*
X122433349Y-95761539D01*
X122413847Y-95832816D01*
X122383725Y-95906908D01*
X122351800Y-95970901D01*
X122291014Y-96067116D01*
X122218265Y-96149912D01*
X122135538Y-96217659D01*
X122044816Y-96268730D01*
X121949432Y-96301179D01*
X121895110Y-96310523D01*
X121836746Y-96314995D01*
X121782998Y-96314198D01*
X121752360Y-96310210D01*
X121667711Y-96288588D01*
X121595611Y-96260385D01*
X121528542Y-96222224D01*
X121481563Y-96188548D01*
X121414547Y-96126156D01*
X121353578Y-96048214D01*
X121301439Y-95959225D01*
X121260918Y-95863696D01*
X121242533Y-95801881D01*
X121231682Y-95739003D01*
X121226007Y-95664244D01*
X121225666Y-95611586D01*
X121351389Y-95611586D01*
X121351963Y-95674779D01*
X121354308Y-95731948D01*
X121358476Y-95777838D01*
X121362006Y-95798357D01*
X121388162Y-95875662D01*
X121429005Y-95950908D01*
X121481530Y-96020975D01*
X121542734Y-96082747D01*
X121609612Y-96133104D01*
X121679161Y-96168929D01*
X121734502Y-96184994D01*
X121789074Y-96190198D01*
X121852626Y-96189153D01*
X121916035Y-96182477D01*
X121970179Y-96170792D01*
X121977439Y-96168477D01*
X122025543Y-96147742D01*
X122077859Y-96118063D01*
X122128061Y-96083659D01*
X122169824Y-96048747D01*
X122190662Y-96026252D01*
X122245575Y-95945373D01*
X122284510Y-95862067D01*
X122308805Y-95772158D01*
X122319802Y-95671472D01*
X122320766Y-95620840D01*
X122319899Y-95564299D01*
X122317279Y-95521550D01*
X122311988Y-95486083D01*
X122303105Y-95451388D01*
X122292078Y-95417737D01*
X122273792Y-95370501D01*
X122252009Y-95322200D01*
X122231196Y-95282683D01*
X122229616Y-95280046D01*
X122183980Y-95218155D01*
X122125506Y-95158382D01*
X122060918Y-95106975D01*
X122010827Y-95076808D01*
X121979744Y-95061737D01*
X121954003Y-95052066D01*
X121927415Y-95046593D01*
X121893786Y-95044115D01*
X121846925Y-95043433D01*
X121838720Y-95043412D01*
X121771630Y-95045237D01*
X121717273Y-95052317D01*
X121668329Y-95066624D01*
X121617477Y-95090130D01*
X121574223Y-95114661D01*
X121502135Y-95169204D01*
X121441742Y-95239086D01*
X121394735Y-95321961D01*
X121365798Y-95403735D01*
X121359791Y-95438446D01*
X121355353Y-95488163D01*
X121352536Y-95547629D01*
X121351389Y-95611586D01*
X121225666Y-95611586D01*
X121225493Y-95585002D01*
X121230123Y-95508671D01*
X121239883Y-95442649D01*
X121243331Y-95427800D01*
X121276140Y-95329396D01*
X121321991Y-95235582D01*
X121378276Y-95150388D01*
X121442392Y-95077846D01*
X121500813Y-95029345D01*
X121573984Y-94982724D01*
X121641464Y-94950537D01*
X121709490Y-94930766D01*
X121784296Y-94921391D01*
X121838720Y-94919915D01*
X121946289Y-94929713D01*
G36*
X123668474Y-94924319D02*
G01*
X123766153Y-94951364D01*
X123859269Y-94998016D01*
X123947328Y-95064113D01*
X123983550Y-95098509D01*
X124058791Y-95188786D01*
X124116846Y-95288794D01*
X124157286Y-95396769D01*
X124179684Y-95510951D01*
X124183612Y-95629576D01*
X124168642Y-95750883D01*
X124155521Y-95806260D01*
X124132653Y-95890080D01*
X123019957Y-95890080D01*
X123003288Y-95830670D01*
X122979259Y-95713836D01*
X122972161Y-95598359D01*
X122973060Y-95587013D01*
X123090033Y-95587013D01*
X123091475Y-95656400D01*
X123093593Y-95695697D01*
X123095861Y-95725564D01*
X123100786Y-95747284D01*
X123110874Y-95762139D01*
X123128633Y-95771411D01*
X123156568Y-95776382D01*
X123197186Y-95778336D01*
X123252994Y-95778555D01*
X123326498Y-95778320D01*
X123548648Y-95778320D01*
X123508202Y-95749020D01*
X123466142Y-95707096D01*
X123439753Y-95656237D01*
X123428914Y-95600302D01*
X123433506Y-95543145D01*
X123453409Y-95488622D01*
X123488503Y-95440589D01*
X123518583Y-95415239D01*
X123543860Y-95399788D01*
X123568410Y-95391253D01*
X123599961Y-95387707D01*
X123631091Y-95387160D01*
X123672567Y-95388351D01*
X123701629Y-95393220D01*
X123726112Y-95403708D01*
X123744489Y-95415278D01*
X123789252Y-95456701D01*
X123818860Y-95507338D01*
X123833237Y-95563306D01*
X123832303Y-95620724D01*
X123815980Y-95675711D01*
X123784191Y-95724384D01*
X123751309Y-95753602D01*
X123713240Y-95780376D01*
X123875800Y-95773750D01*
X123931632Y-95770900D01*
X123980473Y-95767325D01*
X124018640Y-95763380D01*
X124042448Y-95759418D01*
X124048370Y-95757122D01*
X124053778Y-95741747D01*
X124057943Y-95710656D01*
X124060775Y-95668424D01*
X124062187Y-95619623D01*
X124062090Y-95568826D01*
X124060398Y-95520605D01*
X124057021Y-95479533D01*
X124054099Y-95459963D01*
X124039197Y-95406080D01*
X124014782Y-95343690D01*
X123984138Y-95279553D01*
X123950552Y-95220428D01*
X123917309Y-95173073D01*
X123911069Y-95165699D01*
X123852384Y-95113057D01*
X123781696Y-95075250D01*
X123698089Y-95051943D01*
X123600647Y-95042798D01*
X123576080Y-95042663D01*
X123496087Y-95048024D01*
X123427714Y-95064032D01*
X123364028Y-95093039D01*
X123299000Y-95136712D01*
X123227930Y-95203211D01*
X123170759Y-95283342D01*
X123128226Y-95375253D01*
X123101071Y-95477094D01*
X123090033Y-95587013D01*
X122973060Y-95587013D01*
X122981066Y-95486060D01*
X123005049Y-95378763D01*
X123043182Y-95278288D01*
X123094539Y-95186457D01*
X123158195Y-95105093D01*
X123233222Y-95036017D01*
X123318695Y-94981052D01*
X123413687Y-94942018D01*
X123461405Y-94929684D01*
X123566727Y-94917038D01*
X123668474Y-94924319D01*
G37*
X123668474Y-94924319D02*
X123766153Y-94951364D01*
X123859269Y-94998016D01*
X123947328Y-95064113D01*
X123983550Y-95098509D01*
X124058791Y-95188786D01*
X124116846Y-95288794D01*
X124157286Y-95396769D01*
X124179684Y-95510951D01*
X124183612Y-95629576D01*
X124168642Y-95750883D01*
X124155521Y-95806260D01*
X124132653Y-95890080D01*
X123019957Y-95890080D01*
X123003288Y-95830670D01*
X122979259Y-95713836D01*
X122972161Y-95598359D01*
X122973060Y-95587013D01*
X123090033Y-95587013D01*
X123091475Y-95656400D01*
X123093593Y-95695697D01*
X123095861Y-95725564D01*
X123100786Y-95747284D01*
X123110874Y-95762139D01*
X123128633Y-95771411D01*
X123156568Y-95776382D01*
X123197186Y-95778336D01*
X123252994Y-95778555D01*
X123326498Y-95778320D01*
X123548648Y-95778320D01*
X123508202Y-95749020D01*
X123466142Y-95707096D01*
X123439753Y-95656237D01*
X123428914Y-95600302D01*
X123433506Y-95543145D01*
X123453409Y-95488622D01*
X123488503Y-95440589D01*
X123518583Y-95415239D01*
X123543860Y-95399788D01*
X123568410Y-95391253D01*
X123599961Y-95387707D01*
X123631091Y-95387160D01*
X123672567Y-95388351D01*
X123701629Y-95393220D01*
X123726112Y-95403708D01*
X123744489Y-95415278D01*
X123789252Y-95456701D01*
X123818860Y-95507338D01*
X123833237Y-95563306D01*
X123832303Y-95620724D01*
X123815980Y-95675711D01*
X123784191Y-95724384D01*
X123751309Y-95753602D01*
X123713240Y-95780376D01*
X123875800Y-95773750D01*
X123931632Y-95770900D01*
X123980473Y-95767325D01*
X124018640Y-95763380D01*
X124042448Y-95759418D01*
X124048370Y-95757122D01*
X124053778Y-95741747D01*
X124057943Y-95710656D01*
X124060775Y-95668424D01*
X124062187Y-95619623D01*
X124062090Y-95568826D01*
X124060398Y-95520605D01*
X124057021Y-95479533D01*
X124054099Y-95459963D01*
X124039197Y-95406080D01*
X124014782Y-95343690D01*
X123984138Y-95279553D01*
X123950552Y-95220428D01*
X123917309Y-95173073D01*
X123911069Y-95165699D01*
X123852384Y-95113057D01*
X123781696Y-95075250D01*
X123698089Y-95051943D01*
X123600647Y-95042798D01*
X123576080Y-95042663D01*
X123496087Y-95048024D01*
X123427714Y-95064032D01*
X123364028Y-95093039D01*
X123299000Y-95136712D01*
X123227930Y-95203211D01*
X123170759Y-95283342D01*
X123128226Y-95375253D01*
X123101071Y-95477094D01*
X123090033Y-95587013D01*
X122973060Y-95587013D01*
X122981066Y-95486060D01*
X123005049Y-95378763D01*
X123043182Y-95278288D01*
X123094539Y-95186457D01*
X123158195Y-95105093D01*
X123233222Y-95036017D01*
X123318695Y-94981052D01*
X123413687Y-94942018D01*
X123461405Y-94929684D01*
X123566727Y-94917038D01*
X123668474Y-94924319D01*
G36*
X121929821Y-95395899D02*
G01*
X121967932Y-95415652D01*
X122013345Y-95457644D01*
X122042335Y-95506770D01*
X122055855Y-95559910D01*
X122054859Y-95613941D01*
X122040303Y-95665741D01*
X122013140Y-95712187D01*
X121974325Y-95750158D01*
X121924812Y-95776532D01*
X121865556Y-95788186D01*
X121853960Y-95788480D01*
X121791031Y-95779262D01*
X121756498Y-95764831D01*
X121708342Y-95729102D01*
X121674818Y-95682973D01*
X121655916Y-95630133D01*
X121651628Y-95574269D01*
X121661942Y-95519073D01*
X121686850Y-95468232D01*
X121726342Y-95425436D01*
X121757440Y-95404937D01*
X121812482Y-95386042D01*
X121872154Y-95383142D01*
X121929821Y-95395899D01*
G37*
X121929821Y-95395899D02*
X121967932Y-95415652D01*
X122013345Y-95457644D01*
X122042335Y-95506770D01*
X122055855Y-95559910D01*
X122054859Y-95613941D01*
X122040303Y-95665741D01*
X122013140Y-95712187D01*
X121974325Y-95750158D01*
X121924812Y-95776532D01*
X121865556Y-95788186D01*
X121853960Y-95788480D01*
X121791031Y-95779262D01*
X121756498Y-95764831D01*
X121708342Y-95729102D01*
X121674818Y-95682973D01*
X121655916Y-95630133D01*
X121651628Y-95574269D01*
X121661942Y-95519073D01*
X121686850Y-95468232D01*
X121726342Y-95425436D01*
X121757440Y-95404937D01*
X121812482Y-95386042D01*
X121872154Y-95383142D01*
X121929821Y-95395899D01*
D12*
%TO.C,J2*%
X142066000Y-97048000D02*
X148036000Y-97048000D01*
X148036000Y-97048000D02*
X148036000Y-79428000D01*
X148036000Y-79428000D02*
X142066000Y-79428000D01*
X142066000Y-79428000D02*
X142066000Y-97048000D01*
X142076000Y-93738000D02*
X142826000Y-93738000D01*
X142826000Y-93738000D02*
X142826000Y-82738000D01*
X142826000Y-82738000D02*
X142076000Y-82738000D01*
X142076000Y-82738000D02*
X142076000Y-93738000D01*
X142076000Y-97038000D02*
X142826000Y-97038000D01*
X142826000Y-97038000D02*
X142826000Y-95238000D01*
X142826000Y-95238000D02*
X142076000Y-95238000D01*
X142076000Y-95238000D02*
X142076000Y-97038000D01*
X142076000Y-81238000D02*
X142826000Y-81238000D01*
X142826000Y-81238000D02*
X142826000Y-79438000D01*
X142826000Y-79438000D02*
X142076000Y-79438000D01*
X142076000Y-79438000D02*
X142076000Y-81238000D01*
X144326000Y-97038000D02*
X144326000Y-96288000D01*
X144326000Y-96288000D02*
X147276000Y-96288000D01*
X147276000Y-96288000D02*
X147276000Y-88238000D01*
X144326000Y-79438000D02*
X144326000Y-80188000D01*
X144326000Y-80188000D02*
X147276000Y-80188000D01*
X147276000Y-80188000D02*
X147276000Y-88238000D01*
X141776000Y-96088000D02*
X141776000Y-97338000D01*
X141776000Y-97338000D02*
X143026000Y-97338000D01*
%TO.C,U1*%
X135458001Y-83827001D02*
X136183001Y-83827001D01*
X136183001Y-83827001D02*
X136183001Y-84552001D01*
X131688001Y-89047001D02*
X130963001Y-89047001D01*
X130963001Y-89047001D02*
X130963001Y-88322001D01*
X135458001Y-89047001D02*
X136183001Y-89047001D01*
X136183001Y-89047001D02*
X136183001Y-88322001D01*
X131688001Y-83827001D02*
X130963001Y-83827001D01*
%TO.C,U2*%
X129656000Y-95082000D02*
X131456000Y-95082000D01*
X131456000Y-91862000D02*
X129006000Y-91862000D01*
%TO.C,C1*%
X135590233Y-92458000D02*
X135882767Y-92458000D01*
X135590233Y-91438000D02*
X135882767Y-91438000D01*
%TO.C,C2*%
X135590233Y-93216000D02*
X135882767Y-93216000D01*
X135590233Y-94236000D02*
X135882767Y-94236000D01*
%TO.C,C3*%
X135590233Y-96776000D02*
X135882767Y-96776000D01*
X135590233Y-95756000D02*
X135882767Y-95756000D01*
D13*
%TO.C,J1*%
X120206000Y-84388000D02*
X120081000Y-84388000D01*
X120081000Y-84388000D02*
X120081000Y-91888000D01*
X120081000Y-91888000D02*
X120206000Y-91888000D01*
D14*
X125606000Y-86738000D02*
G75*
G03*
X125606000Y-86738000I-100000J0D01*
G01*
%TO.C,J2*%
D10*
X140382666Y-96480380D02*
X140382666Y-97194666D01*
X140335047Y-97337523D01*
X140239809Y-97432761D01*
X140096952Y-97480380D01*
X140001714Y-97480380D01*
X140811238Y-96575619D02*
X140858857Y-96528000D01*
X140954095Y-96480380D01*
X141192190Y-96480380D01*
X141287428Y-96528000D01*
X141335047Y-96575619D01*
X141382666Y-96670857D01*
X141382666Y-96766095D01*
X141335047Y-96908952D01*
X140763619Y-97480380D01*
X141382666Y-97480380D01*
%TO.C,U1*%
X128524095Y-83272380D02*
X128524095Y-84081904D01*
X128571714Y-84177142D01*
X128619333Y-84224761D01*
X128714571Y-84272380D01*
X128905047Y-84272380D01*
X129000285Y-84224761D01*
X129047904Y-84177142D01*
X129095523Y-84081904D01*
X129095523Y-83272380D01*
X130095523Y-84272380D02*
X129524095Y-84272380D01*
X129809809Y-84272380D02*
X129809809Y-83272380D01*
X129714571Y-83415238D01*
X129619333Y-83510476D01*
X129524095Y-83558095D01*
%TO.C,U2*%
X126746095Y-94702380D02*
X126746095Y-95511904D01*
X126793714Y-95607142D01*
X126841333Y-95654761D01*
X126936571Y-95702380D01*
X127127047Y-95702380D01*
X127222285Y-95654761D01*
X127269904Y-95607142D01*
X127317523Y-95511904D01*
X127317523Y-94702380D01*
X127746095Y-94797619D02*
X127793714Y-94750000D01*
X127888952Y-94702380D01*
X128127047Y-94702380D01*
X128222285Y-94750000D01*
X128269904Y-94797619D01*
X128317523Y-94892857D01*
X128317523Y-94988095D01*
X128269904Y-95130952D01*
X127698476Y-95702380D01*
X128317523Y-95702380D01*
%TO.C,C1*%
X138517333Y-92305142D02*
X138469714Y-92352761D01*
X138326857Y-92400380D01*
X138231619Y-92400380D01*
X138088761Y-92352761D01*
X137993523Y-92257523D01*
X137945904Y-92162285D01*
X137898285Y-91971809D01*
X137898285Y-91828952D01*
X137945904Y-91638476D01*
X137993523Y-91543238D01*
X138088761Y-91448000D01*
X138231619Y-91400380D01*
X138326857Y-91400380D01*
X138469714Y-91448000D01*
X138517333Y-91495619D01*
X139469714Y-92400380D02*
X138898285Y-92400380D01*
X139184000Y-92400380D02*
X139184000Y-91400380D01*
X139088761Y-91543238D01*
X138993523Y-91638476D01*
X138898285Y-91686095D01*
%TO.C,C2*%
X138517333Y-94083142D02*
X138469714Y-94130761D01*
X138326857Y-94178380D01*
X138231619Y-94178380D01*
X138088761Y-94130761D01*
X137993523Y-94035523D01*
X137945904Y-93940285D01*
X137898285Y-93749809D01*
X137898285Y-93606952D01*
X137945904Y-93416476D01*
X137993523Y-93321238D01*
X138088761Y-93226000D01*
X138231619Y-93178380D01*
X138326857Y-93178380D01*
X138469714Y-93226000D01*
X138517333Y-93273619D01*
X138898285Y-93273619D02*
X138945904Y-93226000D01*
X139041142Y-93178380D01*
X139279238Y-93178380D01*
X139374476Y-93226000D01*
X139422095Y-93273619D01*
X139469714Y-93368857D01*
X139469714Y-93464095D01*
X139422095Y-93606952D01*
X138850666Y-94178380D01*
X139469714Y-94178380D01*
%TO.C,C3*%
X138263333Y-96623142D02*
X138215714Y-96670761D01*
X138072857Y-96718380D01*
X137977619Y-96718380D01*
X137834761Y-96670761D01*
X137739523Y-96575523D01*
X137691904Y-96480285D01*
X137644285Y-96289809D01*
X137644285Y-96146952D01*
X137691904Y-95956476D01*
X137739523Y-95861238D01*
X137834761Y-95766000D01*
X137977619Y-95718380D01*
X138072857Y-95718380D01*
X138215714Y-95766000D01*
X138263333Y-95813619D01*
X138596666Y-95718380D02*
X139215714Y-95718380D01*
X138882380Y-96099333D01*
X139025238Y-96099333D01*
X139120476Y-96146952D01*
X139168095Y-96194571D01*
X139215714Y-96289809D01*
X139215714Y-96527904D01*
X139168095Y-96623142D01*
X139120476Y-96670761D01*
X139025238Y-96718380D01*
X138739523Y-96718380D01*
X138644285Y-96670761D01*
X138596666Y-96623142D01*
%TO.C,J1*%
D15*
X125904666Y-83272380D02*
X125904666Y-83986666D01*
X125857047Y-84129523D01*
X125761809Y-84224761D01*
X125618952Y-84272380D01*
X125523714Y-84272380D01*
X126904666Y-84272380D02*
X126333238Y-84272380D01*
X126618952Y-84272380D02*
X126618952Y-83272380D01*
X126523714Y-83415238D01*
X126428476Y-83510476D01*
X126333238Y-83558095D01*
%TD*%
M02*
