%TF.GenerationSoftware,KiCad,Pcbnew,(5.1.9)-1*%
%TF.CreationDate,2021-05-16T18:44:34-04:00*%
%TF.ProjectId,esp_prog_v2,6573705f-7072-46f6-975f-76322e6b6963,rev?*%
%TF.SameCoordinates,Original*%
%TF.FileFunction,Paste,Top*%
%TF.FilePolarity,Positive*%
%FSLAX46Y46*%
G04 Gerber Fmt 4.6, Leading zero omitted, Abs format (unit mm)*
G04 Created by KiCad (PCBNEW (5.1.9)-1) date 2021-05-16 18:44:34*
%MOMM*%
%LPD*%
G01*
G04 APERTURE LIST*
%ADD10R,2.500000X1.100000*%
%ADD11R,0.900000X0.800000*%
G04 APERTURE END LIST*
%TO.C,C1*%
G36*
G01*
X73897500Y-30155000D02*
X73422500Y-30155000D01*
G75*
G02*
X73185000Y-29917500I0J237500D01*
G01*
X73185000Y-29317500D01*
G75*
G02*
X73422500Y-29080000I237500J0D01*
G01*
X73897500Y-29080000D01*
G75*
G02*
X74135000Y-29317500I0J-237500D01*
G01*
X74135000Y-29917500D01*
G75*
G02*
X73897500Y-30155000I-237500J0D01*
G01*
G37*
G36*
G01*
X73897500Y-31880000D02*
X73422500Y-31880000D01*
G75*
G02*
X73185000Y-31642500I0J237500D01*
G01*
X73185000Y-31042500D01*
G75*
G02*
X73422500Y-30805000I237500J0D01*
G01*
X73897500Y-30805000D01*
G75*
G02*
X74135000Y-31042500I0J-237500D01*
G01*
X74135000Y-31642500D01*
G75*
G02*
X73897500Y-31880000I-237500J0D01*
G01*
G37*
%TD*%
%TO.C,C2*%
G36*
G01*
X75962500Y-29080000D02*
X76437500Y-29080000D01*
G75*
G02*
X76675000Y-29317500I0J-237500D01*
G01*
X76675000Y-29917500D01*
G75*
G02*
X76437500Y-30155000I-237500J0D01*
G01*
X75962500Y-30155000D01*
G75*
G02*
X75725000Y-29917500I0J237500D01*
G01*
X75725000Y-29317500D01*
G75*
G02*
X75962500Y-29080000I237500J0D01*
G01*
G37*
G36*
G01*
X75962500Y-30805000D02*
X76437500Y-30805000D01*
G75*
G02*
X76675000Y-31042500I0J-237500D01*
G01*
X76675000Y-31642500D01*
G75*
G02*
X76437500Y-31880000I-237500J0D01*
G01*
X75962500Y-31880000D01*
G75*
G02*
X75725000Y-31642500I0J237500D01*
G01*
X75725000Y-31042500D01*
G75*
G02*
X75962500Y-30805000I237500J0D01*
G01*
G37*
%TD*%
D10*
%TO.C,J1*%
X64980000Y-27416000D03*
X64980000Y-25416000D03*
X64980000Y-29916000D03*
X64980000Y-22916000D03*
%TD*%
%TO.C,R1*%
G36*
G01*
X73530000Y-27542500D02*
X73530000Y-27067500D01*
G75*
G02*
X73767500Y-26830000I237500J0D01*
G01*
X74267500Y-26830000D01*
G75*
G02*
X74505000Y-27067500I0J-237500D01*
G01*
X74505000Y-27542500D01*
G75*
G02*
X74267500Y-27780000I-237500J0D01*
G01*
X73767500Y-27780000D01*
G75*
G02*
X73530000Y-27542500I0J237500D01*
G01*
G37*
G36*
G01*
X75355000Y-27542500D02*
X75355000Y-27067500D01*
G75*
G02*
X75592500Y-26830000I237500J0D01*
G01*
X76092500Y-26830000D01*
G75*
G02*
X76330000Y-27067500I0J-237500D01*
G01*
X76330000Y-27542500D01*
G75*
G02*
X76092500Y-27780000I-237500J0D01*
G01*
X75592500Y-27780000D01*
G75*
G02*
X75355000Y-27542500I0J237500D01*
G01*
G37*
%TD*%
D11*
%TO.C,U1*%
X70850000Y-31430000D03*
X70850000Y-29530000D03*
X68850000Y-30480000D03*
%TD*%
%TO.C,U2*%
G36*
G01*
X68905000Y-21422500D02*
X68905000Y-21297500D01*
G75*
G02*
X68967500Y-21235000I62500J0D01*
G01*
X69642500Y-21235000D01*
G75*
G02*
X69705000Y-21297500I0J-62500D01*
G01*
X69705000Y-21422500D01*
G75*
G02*
X69642500Y-21485000I-62500J0D01*
G01*
X68967500Y-21485000D01*
G75*
G02*
X68905000Y-21422500I0J62500D01*
G01*
G37*
G36*
G01*
X68905000Y-21922500D02*
X68905000Y-21797500D01*
G75*
G02*
X68967500Y-21735000I62500J0D01*
G01*
X69642500Y-21735000D01*
G75*
G02*
X69705000Y-21797500I0J-62500D01*
G01*
X69705000Y-21922500D01*
G75*
G02*
X69642500Y-21985000I-62500J0D01*
G01*
X68967500Y-21985000D01*
G75*
G02*
X68905000Y-21922500I0J62500D01*
G01*
G37*
G36*
G01*
X68905000Y-22422500D02*
X68905000Y-22297500D01*
G75*
G02*
X68967500Y-22235000I62500J0D01*
G01*
X69642500Y-22235000D01*
G75*
G02*
X69705000Y-22297500I0J-62500D01*
G01*
X69705000Y-22422500D01*
G75*
G02*
X69642500Y-22485000I-62500J0D01*
G01*
X68967500Y-22485000D01*
G75*
G02*
X68905000Y-22422500I0J62500D01*
G01*
G37*
G36*
G01*
X68905000Y-22922500D02*
X68905000Y-22797500D01*
G75*
G02*
X68967500Y-22735000I62500J0D01*
G01*
X69642500Y-22735000D01*
G75*
G02*
X69705000Y-22797500I0J-62500D01*
G01*
X69705000Y-22922500D01*
G75*
G02*
X69642500Y-22985000I-62500J0D01*
G01*
X68967500Y-22985000D01*
G75*
G02*
X68905000Y-22922500I0J62500D01*
G01*
G37*
G36*
G01*
X68905000Y-23422500D02*
X68905000Y-23297500D01*
G75*
G02*
X68967500Y-23235000I62500J0D01*
G01*
X69642500Y-23235000D01*
G75*
G02*
X69705000Y-23297500I0J-62500D01*
G01*
X69705000Y-23422500D01*
G75*
G02*
X69642500Y-23485000I-62500J0D01*
G01*
X68967500Y-23485000D01*
G75*
G02*
X68905000Y-23422500I0J62500D01*
G01*
G37*
G36*
G01*
X68905000Y-23922500D02*
X68905000Y-23797500D01*
G75*
G02*
X68967500Y-23735000I62500J0D01*
G01*
X69642500Y-23735000D01*
G75*
G02*
X69705000Y-23797500I0J-62500D01*
G01*
X69705000Y-23922500D01*
G75*
G02*
X69642500Y-23985000I-62500J0D01*
G01*
X68967500Y-23985000D01*
G75*
G02*
X68905000Y-23922500I0J62500D01*
G01*
G37*
G36*
G01*
X68905000Y-24422500D02*
X68905000Y-24297500D01*
G75*
G02*
X68967500Y-24235000I62500J0D01*
G01*
X69642500Y-24235000D01*
G75*
G02*
X69705000Y-24297500I0J-62500D01*
G01*
X69705000Y-24422500D01*
G75*
G02*
X69642500Y-24485000I-62500J0D01*
G01*
X68967500Y-24485000D01*
G75*
G02*
X68905000Y-24422500I0J62500D01*
G01*
G37*
G36*
G01*
X70130000Y-25647500D02*
X70130000Y-24972500D01*
G75*
G02*
X70192500Y-24910000I62500J0D01*
G01*
X70317500Y-24910000D01*
G75*
G02*
X70380000Y-24972500I0J-62500D01*
G01*
X70380000Y-25647500D01*
G75*
G02*
X70317500Y-25710000I-62500J0D01*
G01*
X70192500Y-25710000D01*
G75*
G02*
X70130000Y-25647500I0J62500D01*
G01*
G37*
G36*
G01*
X70630000Y-25647500D02*
X70630000Y-24972500D01*
G75*
G02*
X70692500Y-24910000I62500J0D01*
G01*
X70817500Y-24910000D01*
G75*
G02*
X70880000Y-24972500I0J-62500D01*
G01*
X70880000Y-25647500D01*
G75*
G02*
X70817500Y-25710000I-62500J0D01*
G01*
X70692500Y-25710000D01*
G75*
G02*
X70630000Y-25647500I0J62500D01*
G01*
G37*
G36*
G01*
X71130000Y-25647500D02*
X71130000Y-24972500D01*
G75*
G02*
X71192500Y-24910000I62500J0D01*
G01*
X71317500Y-24910000D01*
G75*
G02*
X71380000Y-24972500I0J-62500D01*
G01*
X71380000Y-25647500D01*
G75*
G02*
X71317500Y-25710000I-62500J0D01*
G01*
X71192500Y-25710000D01*
G75*
G02*
X71130000Y-25647500I0J62500D01*
G01*
G37*
G36*
G01*
X71630000Y-25647500D02*
X71630000Y-24972500D01*
G75*
G02*
X71692500Y-24910000I62500J0D01*
G01*
X71817500Y-24910000D01*
G75*
G02*
X71880000Y-24972500I0J-62500D01*
G01*
X71880000Y-25647500D01*
G75*
G02*
X71817500Y-25710000I-62500J0D01*
G01*
X71692500Y-25710000D01*
G75*
G02*
X71630000Y-25647500I0J62500D01*
G01*
G37*
G36*
G01*
X72130000Y-25647500D02*
X72130000Y-24972500D01*
G75*
G02*
X72192500Y-24910000I62500J0D01*
G01*
X72317500Y-24910000D01*
G75*
G02*
X72380000Y-24972500I0J-62500D01*
G01*
X72380000Y-25647500D01*
G75*
G02*
X72317500Y-25710000I-62500J0D01*
G01*
X72192500Y-25710000D01*
G75*
G02*
X72130000Y-25647500I0J62500D01*
G01*
G37*
G36*
G01*
X72630000Y-25647500D02*
X72630000Y-24972500D01*
G75*
G02*
X72692500Y-24910000I62500J0D01*
G01*
X72817500Y-24910000D01*
G75*
G02*
X72880000Y-24972500I0J-62500D01*
G01*
X72880000Y-25647500D01*
G75*
G02*
X72817500Y-25710000I-62500J0D01*
G01*
X72692500Y-25710000D01*
G75*
G02*
X72630000Y-25647500I0J62500D01*
G01*
G37*
G36*
G01*
X73130000Y-25647500D02*
X73130000Y-24972500D01*
G75*
G02*
X73192500Y-24910000I62500J0D01*
G01*
X73317500Y-24910000D01*
G75*
G02*
X73380000Y-24972500I0J-62500D01*
G01*
X73380000Y-25647500D01*
G75*
G02*
X73317500Y-25710000I-62500J0D01*
G01*
X73192500Y-25710000D01*
G75*
G02*
X73130000Y-25647500I0J62500D01*
G01*
G37*
G36*
G01*
X73805000Y-24422500D02*
X73805000Y-24297500D01*
G75*
G02*
X73867500Y-24235000I62500J0D01*
G01*
X74542500Y-24235000D01*
G75*
G02*
X74605000Y-24297500I0J-62500D01*
G01*
X74605000Y-24422500D01*
G75*
G02*
X74542500Y-24485000I-62500J0D01*
G01*
X73867500Y-24485000D01*
G75*
G02*
X73805000Y-24422500I0J62500D01*
G01*
G37*
G36*
G01*
X73805000Y-23922500D02*
X73805000Y-23797500D01*
G75*
G02*
X73867500Y-23735000I62500J0D01*
G01*
X74542500Y-23735000D01*
G75*
G02*
X74605000Y-23797500I0J-62500D01*
G01*
X74605000Y-23922500D01*
G75*
G02*
X74542500Y-23985000I-62500J0D01*
G01*
X73867500Y-23985000D01*
G75*
G02*
X73805000Y-23922500I0J62500D01*
G01*
G37*
G36*
G01*
X73805000Y-23422500D02*
X73805000Y-23297500D01*
G75*
G02*
X73867500Y-23235000I62500J0D01*
G01*
X74542500Y-23235000D01*
G75*
G02*
X74605000Y-23297500I0J-62500D01*
G01*
X74605000Y-23422500D01*
G75*
G02*
X74542500Y-23485000I-62500J0D01*
G01*
X73867500Y-23485000D01*
G75*
G02*
X73805000Y-23422500I0J62500D01*
G01*
G37*
G36*
G01*
X73805000Y-22922500D02*
X73805000Y-22797500D01*
G75*
G02*
X73867500Y-22735000I62500J0D01*
G01*
X74542500Y-22735000D01*
G75*
G02*
X74605000Y-22797500I0J-62500D01*
G01*
X74605000Y-22922500D01*
G75*
G02*
X74542500Y-22985000I-62500J0D01*
G01*
X73867500Y-22985000D01*
G75*
G02*
X73805000Y-22922500I0J62500D01*
G01*
G37*
G36*
G01*
X73805000Y-22422500D02*
X73805000Y-22297500D01*
G75*
G02*
X73867500Y-22235000I62500J0D01*
G01*
X74542500Y-22235000D01*
G75*
G02*
X74605000Y-22297500I0J-62500D01*
G01*
X74605000Y-22422500D01*
G75*
G02*
X74542500Y-22485000I-62500J0D01*
G01*
X73867500Y-22485000D01*
G75*
G02*
X73805000Y-22422500I0J62500D01*
G01*
G37*
G36*
G01*
X73805000Y-21922500D02*
X73805000Y-21797500D01*
G75*
G02*
X73867500Y-21735000I62500J0D01*
G01*
X74542500Y-21735000D01*
G75*
G02*
X74605000Y-21797500I0J-62500D01*
G01*
X74605000Y-21922500D01*
G75*
G02*
X74542500Y-21985000I-62500J0D01*
G01*
X73867500Y-21985000D01*
G75*
G02*
X73805000Y-21922500I0J62500D01*
G01*
G37*
G36*
G01*
X73805000Y-21422500D02*
X73805000Y-21297500D01*
G75*
G02*
X73867500Y-21235000I62500J0D01*
G01*
X74542500Y-21235000D01*
G75*
G02*
X74605000Y-21297500I0J-62500D01*
G01*
X74605000Y-21422500D01*
G75*
G02*
X74542500Y-21485000I-62500J0D01*
G01*
X73867500Y-21485000D01*
G75*
G02*
X73805000Y-21422500I0J62500D01*
G01*
G37*
G36*
G01*
X73130000Y-20747500D02*
X73130000Y-20072500D01*
G75*
G02*
X73192500Y-20010000I62500J0D01*
G01*
X73317500Y-20010000D01*
G75*
G02*
X73380000Y-20072500I0J-62500D01*
G01*
X73380000Y-20747500D01*
G75*
G02*
X73317500Y-20810000I-62500J0D01*
G01*
X73192500Y-20810000D01*
G75*
G02*
X73130000Y-20747500I0J62500D01*
G01*
G37*
G36*
G01*
X72630000Y-20747500D02*
X72630000Y-20072500D01*
G75*
G02*
X72692500Y-20010000I62500J0D01*
G01*
X72817500Y-20010000D01*
G75*
G02*
X72880000Y-20072500I0J-62500D01*
G01*
X72880000Y-20747500D01*
G75*
G02*
X72817500Y-20810000I-62500J0D01*
G01*
X72692500Y-20810000D01*
G75*
G02*
X72630000Y-20747500I0J62500D01*
G01*
G37*
G36*
G01*
X72130000Y-20747500D02*
X72130000Y-20072500D01*
G75*
G02*
X72192500Y-20010000I62500J0D01*
G01*
X72317500Y-20010000D01*
G75*
G02*
X72380000Y-20072500I0J-62500D01*
G01*
X72380000Y-20747500D01*
G75*
G02*
X72317500Y-20810000I-62500J0D01*
G01*
X72192500Y-20810000D01*
G75*
G02*
X72130000Y-20747500I0J62500D01*
G01*
G37*
G36*
G01*
X71630000Y-20747500D02*
X71630000Y-20072500D01*
G75*
G02*
X71692500Y-20010000I62500J0D01*
G01*
X71817500Y-20010000D01*
G75*
G02*
X71880000Y-20072500I0J-62500D01*
G01*
X71880000Y-20747500D01*
G75*
G02*
X71817500Y-20810000I-62500J0D01*
G01*
X71692500Y-20810000D01*
G75*
G02*
X71630000Y-20747500I0J62500D01*
G01*
G37*
G36*
G01*
X71130000Y-20747500D02*
X71130000Y-20072500D01*
G75*
G02*
X71192500Y-20010000I62500J0D01*
G01*
X71317500Y-20010000D01*
G75*
G02*
X71380000Y-20072500I0J-62500D01*
G01*
X71380000Y-20747500D01*
G75*
G02*
X71317500Y-20810000I-62500J0D01*
G01*
X71192500Y-20810000D01*
G75*
G02*
X71130000Y-20747500I0J62500D01*
G01*
G37*
G36*
G01*
X70630000Y-20747500D02*
X70630000Y-20072500D01*
G75*
G02*
X70692500Y-20010000I62500J0D01*
G01*
X70817500Y-20010000D01*
G75*
G02*
X70880000Y-20072500I0J-62500D01*
G01*
X70880000Y-20747500D01*
G75*
G02*
X70817500Y-20810000I-62500J0D01*
G01*
X70692500Y-20810000D01*
G75*
G02*
X70630000Y-20747500I0J62500D01*
G01*
G37*
G36*
G01*
X70130000Y-20747500D02*
X70130000Y-20072500D01*
G75*
G02*
X70192500Y-20010000I62500J0D01*
G01*
X70317500Y-20010000D01*
G75*
G02*
X70380000Y-20072500I0J-62500D01*
G01*
X70380000Y-20747500D01*
G75*
G02*
X70317500Y-20810000I-62500J0D01*
G01*
X70192500Y-20810000D01*
G75*
G02*
X70130000Y-20747500I0J62500D01*
G01*
G37*
G36*
G01*
X70185000Y-21965000D02*
X70185000Y-21515000D01*
G75*
G02*
X70410000Y-21290000I225000J0D01*
G01*
X70860000Y-21290000D01*
G75*
G02*
X71085000Y-21515000I0J-225000D01*
G01*
X71085000Y-21965000D01*
G75*
G02*
X70860000Y-22190000I-225000J0D01*
G01*
X70410000Y-22190000D01*
G75*
G02*
X70185000Y-21965000I0J225000D01*
G01*
G37*
G36*
G01*
X70185000Y-23085000D02*
X70185000Y-22635000D01*
G75*
G02*
X70410000Y-22410000I225000J0D01*
G01*
X70860000Y-22410000D01*
G75*
G02*
X71085000Y-22635000I0J-225000D01*
G01*
X71085000Y-23085000D01*
G75*
G02*
X70860000Y-23310000I-225000J0D01*
G01*
X70410000Y-23310000D01*
G75*
G02*
X70185000Y-23085000I0J225000D01*
G01*
G37*
G36*
G01*
X70185000Y-24205000D02*
X70185000Y-23755000D01*
G75*
G02*
X70410000Y-23530000I225000J0D01*
G01*
X70860000Y-23530000D01*
G75*
G02*
X71085000Y-23755000I0J-225000D01*
G01*
X71085000Y-24205000D01*
G75*
G02*
X70860000Y-24430000I-225000J0D01*
G01*
X70410000Y-24430000D01*
G75*
G02*
X70185000Y-24205000I0J225000D01*
G01*
G37*
G36*
G01*
X71305000Y-21965000D02*
X71305000Y-21515000D01*
G75*
G02*
X71530000Y-21290000I225000J0D01*
G01*
X71980000Y-21290000D01*
G75*
G02*
X72205000Y-21515000I0J-225000D01*
G01*
X72205000Y-21965000D01*
G75*
G02*
X71980000Y-22190000I-225000J0D01*
G01*
X71530000Y-22190000D01*
G75*
G02*
X71305000Y-21965000I0J225000D01*
G01*
G37*
G36*
G01*
X71305000Y-23085000D02*
X71305000Y-22635000D01*
G75*
G02*
X71530000Y-22410000I225000J0D01*
G01*
X71980000Y-22410000D01*
G75*
G02*
X72205000Y-22635000I0J-225000D01*
G01*
X72205000Y-23085000D01*
G75*
G02*
X71980000Y-23310000I-225000J0D01*
G01*
X71530000Y-23310000D01*
G75*
G02*
X71305000Y-23085000I0J225000D01*
G01*
G37*
G36*
G01*
X71305000Y-24205000D02*
X71305000Y-23755000D01*
G75*
G02*
X71530000Y-23530000I225000J0D01*
G01*
X71980000Y-23530000D01*
G75*
G02*
X72205000Y-23755000I0J-225000D01*
G01*
X72205000Y-24205000D01*
G75*
G02*
X71980000Y-24430000I-225000J0D01*
G01*
X71530000Y-24430000D01*
G75*
G02*
X71305000Y-24205000I0J225000D01*
G01*
G37*
G36*
G01*
X72425000Y-21965000D02*
X72425000Y-21515000D01*
G75*
G02*
X72650000Y-21290000I225000J0D01*
G01*
X73100000Y-21290000D01*
G75*
G02*
X73325000Y-21515000I0J-225000D01*
G01*
X73325000Y-21965000D01*
G75*
G02*
X73100000Y-22190000I-225000J0D01*
G01*
X72650000Y-22190000D01*
G75*
G02*
X72425000Y-21965000I0J225000D01*
G01*
G37*
G36*
G01*
X72425000Y-23085000D02*
X72425000Y-22635000D01*
G75*
G02*
X72650000Y-22410000I225000J0D01*
G01*
X73100000Y-22410000D01*
G75*
G02*
X73325000Y-22635000I0J-225000D01*
G01*
X73325000Y-23085000D01*
G75*
G02*
X73100000Y-23310000I-225000J0D01*
G01*
X72650000Y-23310000D01*
G75*
G02*
X72425000Y-23085000I0J225000D01*
G01*
G37*
G36*
G01*
X72425000Y-24205000D02*
X72425000Y-23755000D01*
G75*
G02*
X72650000Y-23530000I225000J0D01*
G01*
X73100000Y-23530000D01*
G75*
G02*
X73325000Y-23755000I0J-225000D01*
G01*
X73325000Y-24205000D01*
G75*
G02*
X73100000Y-24430000I-225000J0D01*
G01*
X72650000Y-24430000D01*
G75*
G02*
X72425000Y-24205000I0J225000D01*
G01*
G37*
%TD*%
M02*
